<svg width="80" height="80" viewBox="0 0 80 80" fill="none" xmlns="http://www.w3.org/2000/svg">
<circle cx="40" cy="40" r="40" fill="#EAF5EB"/>
<path d="M53.625 36.5833C53.625 46.7916 40.5 55.5416 40.5 55.5416C40.5 55.5416 27.375 46.7916 27.375 36.5833C27.375 33.1023 28.7578 29.764 31.2192 27.3025C33.6806 24.8411 37.019 23.4583 40.5 23.4583C43.981 23.4583 47.3194 24.8411 49.7808 27.3025C52.2422 29.764 53.625 33.1023 53.625 36.5833Z" stroke="#079911" stroke-width="2" stroke-linecap="round" stroke-linejoin="round"/>
<path d="M40.5 40.9583C42.9162 40.9583 44.875 38.9996 44.875 36.5833C44.875 34.1671 42.9162 32.2083 40.5 32.2083C38.0838 32.2083 36.125 34.1671 36.125 36.5833C36.125 38.9996 38.0838 40.9583 40.5 40.9583Z" stroke="#079911" stroke-width="2" stroke-linecap="round" stroke-linejoin="round"/>
</svg>
