<svg width="1120" height="406" viewBox="0 0 1120 406" fill="none" xmlns="http://www.w3.org/2000/svg">
<mask id="mask0_39_150" style="mask-type:alpha" maskUnits="userSpaceOnUse" x="0" y="0" width="1120" height="406">
<rect width="1120" height="406" rx="50" fill="#EAF5EB"/>
</mask>
<g mask="url(#mask0_39_150)">
<path fill-rule="evenodd" clip-rule="evenodd" d="M1090.52 -12.8293C1104.13 -3.15421 1119.73 3.45522 1133.95 12.1686C1137.51 14.3496 1148.6 18.8778 1148.49 22.9233C1148.43 25.2886 1145.1 28.2545 1143.64 29.8938C1141.14 32.702 1138.79 35.5396 1136.48 38.5103C1125.92 52.114 1115.98 65.846 1104.53 78.7664C1102.81 80.7098 1097.62 89.9896 1095.95 85.3806C1095.19 83.2908 1095.81 80.9426 1093.83 78.9945C1092.81 77.991 1088.88 77.4379 1090.02 75.2854C1090.79 75.6294 1091.55 75.9744 1092.32 76.3175C1091.72 74.5974 1091.77 72.7129 1090.88 71.087C1090.32 70.0768 1089.24 69.5988 1088.87 68.4613C1088.35 66.8894 1089.23 65.0629 1089.08 63.4426C1088.94 61.8271 1088.1 60.3 1087.6 58.7757C1084.64 49.7401 1083.58 40.6314 1082.06 31.3088C1080.56 22.0842 1078.22 13.1484 1077.31 3.82108C1076.34 -6.0308 1075.15 -15.8627 1073.57 -25.6357C1076.39 -25.2385 1078.57 -22.1623 1080.57 -20.4233C1083.71 -17.6902 1087.13 -15.2412 1090.52 -12.8293ZM1079.85 82.5505C1079.2 82.0402 1078.69 81.413 1078.33 80.6699C1085 77.3628 1080.97 83.0048 1079.85 82.5505ZM1075.8 75.4973C1072.89 76.2994 1070.8 76.4619 1068.56 75.2645C1068.35 75.1514 1068.59 74.2762 1068.21 74.0966C1067.87 73.9407 1067.36 74.1336 1067.07 73.9873C1066.1 73.4903 1064.39 74.5793 1064.22 72.6768C1067.93 71.5402 1071.58 69.4429 1075.5 69.0894C1080.94 68.599 1080.69 74.146 1075.8 75.4973ZM1063.06 64.5307C1059.09 65.4592 1055.83 67.6278 1051.61 67.0614C1047.66 66.5312 1044.22 64.4775 1041.1 62.1113C1048.9 59.8989 1057.09 59.4998 1064.89 57.3597C1067.43 56.6631 1070.77 54.8262 1073.5 55.5665C1076.54 56.3895 1076.74 59.2404 1077.65 61.8347C1072.78 62.7109 1067.88 63.4037 1063.06 64.5307ZM1038.25 53.5224C1034.44 54.4337 1030.55 56.4265 1027.36 52.9873C1026.85 52.4323 1026.4 52.9864 1026.46 51.2768C1026.52 49.474 1028.15 48.3127 1029.56 47.6779C1032.87 46.1859 1037.5 47.1505 1041.01 46.931C1046.61 46.5822 1052.31 45.4171 1057.85 44.52C1061.69 43.8995 1065.65 42.5216 1069.57 42.7933C1072.59 43.0034 1076.25 45.5853 1071.83 47.4689C1067.82 49.1851 1061.8 48.9219 1057.44 49.665C1051.01 50.7636 1044.6 52.0038 1038.25 53.5224ZM1034.53 35.5767C1034.78 35.8285 1035.02 36.0803 1035.27 36.3322C1035.23 36.3227 1036.73 35.1053 1037.13 35.0701C1039.06 34.9019 1041 35.035 1042.94 34.9257C1047.4 34.6739 1051.89 33.8965 1056.27 33.0403C1059.84 32.3428 1063.47 31.1406 1067.14 31.4419C1070.32 31.7023 1070.65 32.3542 1070.86 35.4246C1062.75 35.4246 1054.39 35.2536 1046.42 36.9727C1041.23 38.0912 1035.5 41.423 1032.9 35.417C1033.45 35.4702 1033.99 35.5235 1034.53 35.5767ZM1039.6 22.5774C1041.61 24.1112 1047.1 21.5605 1049.51 21.3058C1052.13 21.0284 1054.59 20.7404 1057.13 20.0876C1059.38 19.5079 1066.82 16.6132 1068.55 19.3815C1071.19 23.6227 1060.48 24.401 1058.78 24.611C1051.66 25.492 1044.27 26.2731 1037.34 28.1433C1038.09 26.2883 1038.85 24.4333 1039.6 22.5774ZM1049.37 8.1716C1049.89 10.1321 1066 2.90783 1066.29 8.1583C1066.52 12.1867 1050.36 14.1937 1047.45 13.8402C1048.13 11.9852 1049.94 10.3241 1049.37 8.1716ZM1054.78 -4.15108C1055.12 -8.10532 1055.65 -8.08252 1058.82 -8.45504C1061.24 -8.73919 1064.56 -10.157 1063.93 -5.84643C1063.39 -2.15542 1054.44 -0.160721 1054.78 -4.15108ZM1060.54 -17.7567C1061.3 -19.8797 1063.02 -17.0221 1063.05 -15.9425C1063.15 -13.0698 1060.97 -13.6913 1058.88 -13.6913C1059.46 -15.0331 1060.02 -16.3901 1060.54 -17.7567ZM1087.05 -33.6924C1086.62 -34.2075 1084.23 -34.4042 1083.54 -34.6542C1081.87 -35.27 1082.1 -36.5823 1079.96 -35.288C1079.85 -35.3964 1080.05 -36.3695 1079.94 -36.4141C1079.88 -36.4369 1078.37 -37.0052 1077.88 -37.3188C1076.7 -38.0753 1075.64 -38.8156 1074.56 -39.7649C1073.4 -40.7732 1072.25 -42.2367 1070.93 -43.0397C1070.38 -43.378 1069.92 -43.8579 1069.25 -43.9615C1067.52 -44.2295 1068.02 -43.0188 1066.5 -42.7784C1065.56 -42.6301 1064.88 -43.723 1063.66 -43.2516C1062.6 -42.8449 1061.99 -41.3615 1061.52 -40.4786C1059.81 -37.2656 1058.49 -33.8074 1056.81 -30.5602C1048.24 -13.9554 1038.5 2.01929 1030.2 18.779C1026.2 26.8528 1022.03 34.9827 1019.22 43.5631C1017.19 49.7515 1012.61 58.7918 1016.55 64.9755C1019.42 69.4714 1025.15 71.4129 1029.73 73.5853C1036.62 76.8544 1042.97 81.127 1049.94 84.2963C1058.25 88.0757 1066.31 92.029 1074.41 96.2493C1077.86 98.0492 1080.98 100.642 1084.42 102.346C1086.52 103.389 1089.77 101.61 1090.46 104C1093.1 100.801 1097.37 102.934 1100.42 100.682C1102.21 99.3568 1103.53 96.7472 1105.02 95.1155C1107.27 92.6694 1109.71 90.4001 1112 87.9968C1121.09 78.4509 1129.49 68.5088 1137.77 58.2558C1145.67 48.4648 1154.91 39.2145 1161.58 28.4969C1164.24 24.2423 1164.72 19.7806 1162.97 15.0804C1161.69 11.6516 1158.61 6.47434 1154.21 8.74464C1155.88 5.97353 1149.45 3.01427 1147.5 2.47259C1147.47 2.46499 1147.09 4.59368 1146.54 4.54046C1146.74 4.55947 1144.91 -0.175938 1144.1 -0.783184C1141.72 -2.58973 1138.82 -4.69751 1136.22 -6.18474C1133.83 -7.54844 1131.31 -8.22411 1129 -9.75031C1126.2 -11.5996 1123.62 -13.7929 1120.81 -15.6299C1118.09 -17.4032 1115.07 -19.4996 1112.07 -20.7188C1109.46 -21.7765 1107.12 -21.9837 1104.78 -23.717C1101.89 -25.8619 1099.36 -27.3168 1096.02 -28.7946C1093.13 -30.0727 1089.12 -31.1893 1087.05 -33.6924Z" fill="#CCE1CE"/>
<path fill-rule="evenodd" clip-rule="evenodd" d="M867.845 408.192C868.147 407.487 868.447 406.782 868.749 406.078C869.123 407.307 869.227 407.918 867.845 408.192ZM868.246 411.448C867.592 411.564 867.85 409.525 867.85 409.169C868.98 409.805 868.044 410.567 868.246 411.448ZM867.226 405.564C867.784 405.237 868.342 404.91 868.899 404.582C868.123 406.012 868.427 405.119 868.748 406.074C868.162 406.241 867.593 406.046 867.226 405.564ZM863.922 416.741C861.831 424.279 855.192 430.223 848.18 433.303C844.15 435.072 840.189 435.514 835.837 435.317C834.159 435.241 832.184 434.699 830.569 434.8C829.325 434.878 829.381 434.931 828.351 435.977C827.896 435.143 828.226 434.558 827.312 434.072C826.171 433.467 825.698 434.172 825.132 435.011C824.391 434.248 824.088 433.85 823.129 433.397C823.159 433.412 822.211 433.376 822.249 433.387C822.078 433.335 821.046 432.676 820.723 432.556C819.398 432.061 817.865 431.858 816.642 431.149C815.572 430.53 814.691 428.792 813.467 430.127C813.465 427.896 810.441 426.97 809.023 425.801C806.807 423.974 805.046 421.27 803.942 418.653C802.764 415.863 802.371 413.189 801.82 410.314C801.434 408.305 798.913 405.401 800.427 403.373C800.788 404.224 800.619 405.094 801.218 405.865C801.757 404.832 802.054 403.676 802.297 402.546C802.417 401.992 803.111 400.367 803.032 399.885C802.872 398.897 801.642 398.844 802.324 397.633C803.738 399.163 804.879 396.477 803.811 395.407C803.283 395.998 803.09 396.67 802.846 397.402C801.456 394.612 805.304 395.511 804.462 392.993C805.866 392.724 806.674 392.373 807.208 390.993C807.801 389.459 807.364 389.124 808.713 388.11C809.176 387.762 810.488 387.261 810.728 386.687C811.192 385.579 810.011 385.251 811.046 384.212C811.395 384.822 812.757 386.028 813.503 384.88C813.653 384.651 813.025 384.489 813.482 383.962C814.157 383.181 814.913 382.416 816.056 382.58C815.151 380.331 820.934 380.153 822.414 379.623C823.899 379.091 825.158 378.743 826.731 378.619C828.303 378.496 828.382 378.038 829.713 377.098C829.825 378.443 830.151 378.148 831.114 378.385C831.345 377.991 831.582 377.946 831.825 378.252C832.067 378.48 832.362 378.588 832.71 378.575C833.239 378.602 833.839 378.533 834.393 378.545C835.693 378.57 837.034 378.462 838.309 378.49C838.638 378.435 838.946 378.321 839.234 378.148C839.354 378.373 839.475 378.599 839.594 378.825C840.27 378.909 840.323 379.75 841.154 378.83C841.399 380 842.106 379.391 842.852 379.708C843.533 379.998 843.641 380.462 844.27 380.785C844.683 381.118 845.125 381.162 845.599 380.918C846.049 381.249 846.507 381.572 846.97 381.884C847.825 382.364 848.832 382.658 849.733 383.036C850.332 383.282 850.928 383.538 851.518 383.802C851.536 384.511 851.856 384.761 852.477 384.553C853.038 385.02 853.196 385.001 853.741 385.796C854.975 387.598 856.07 388.997 857.628 390.607C864.402 397.608 866.483 407.504 863.922 416.741ZM866.001 386.974C862.942 382.904 858.614 378.243 854.724 375.672C852.752 374.369 849.984 372.029 847.573 371.34C847.002 371.176 846.41 371.166 845.848 370.994C845.414 370.862 845.178 370.419 844.683 370.339C844.336 370.283 844.298 371.054 843.93 370.983C843.161 370.834 842.674 370.075 842.131 369.601C840.964 371.599 840.331 368.239 838.618 370.498C836.58 367.321 831.791 368.016 828.536 368.176C827.571 368.223 827.117 368.564 826.261 368.817C825.465 369.053 825.386 368.992 824.516 368.986C822.35 368.969 820.427 369.24 818.424 370.185C815.06 371.773 811.972 374.248 808.777 376.162C805.206 378.301 801.987 381.024 799.255 384.153C789.378 395.466 786.737 411.978 794.612 425.093C807.121 445.923 839.387 448.149 857.671 434.016C871.796 423.096 877.172 401.84 866.001 386.974Z" fill="#CCE1CE"/>
<path fill-rule="evenodd" clip-rule="evenodd" d="M760.754 265.65C759.163 265.118 757.183 264.047 755.442 264.479C753.593 264.938 752.895 266.823 751.573 267.981C747.979 271.13 745.71 266.649 743.62 264.216C741.646 261.919 739.301 261.414 736.647 262.933C735.59 263.538 731.143 266.301 731.978 267.969C732.579 269.169 734.782 268.015 735.537 267.729C737.174 267.107 738.696 266.561 740.411 267.353C743.628 268.838 744.571 273.13 748.429 273.696C752.418 274.282 752.443 270.501 755.236 269C757.109 267.994 758.479 269.645 760.302 269.258C762.039 268.889 762.776 266.326 760.754 265.65Z" fill="#CCE1CE"/>
<path fill-rule="evenodd" clip-rule="evenodd" d="M729.129 281.766C730.542 282.031 731.383 279.283 732.242 278.568C733.668 277.382 736.189 277.081 737.706 278.192C740.667 280.361 739.803 285.245 743.966 286.396C747.686 287.425 749.289 282.518 752.361 281.222C754.147 280.468 756.116 279.952 755.341 277.448C754.806 275.716 753.36 275.308 751.82 276.021C749.174 277.247 748.395 281.962 745.222 282.135C741.939 282.313 741.451 277.586 739.983 275.563C737.745 272.478 733.304 271.842 730.876 274.918C730.142 275.846 726.439 281.261 729.129 281.766Z" fill="#CCE1CE"/>
</g>
</svg>
