<svg width="565" height="451" viewBox="0 0 565 451" fill="none" xmlns="http://www.w3.org/2000/svg">
<path fill-rule="evenodd" clip-rule="evenodd" d="M317.224 197.003C322.245 200.877 321.445 208.5 319.934 214.038C317.709 222.193 313.276 229.742 308.219 236.249C299.248 247.793 284.018 260.755 269.98 250.621C257.479 241.595 249.593 223.383 246.871 208.042C246.03 203.302 244.909 196.238 248.862 192.674C254.706 187.406 265.014 188.364 272.068 189.042C276.714 189.489 281.197 191.005 285.788 190.293C296.455 188.638 308.327 190.137 317.224 197.003Z" fill="#079911"/>
<path fill-rule="evenodd" clip-rule="evenodd" d="M100.947 257.413C111.117 271.145 128.408 273.315 143.765 273.18C152.987 273.099 162.226 272.36 171.267 270.36C176.141 269.281 180.982 267.852 185.692 266.136C188.802 265.002 193.433 264.435 194.757 260.887C198.249 251.526 195.68 239.787 194.242 230.285C193.51 225.453 192.961 220.591 192.25 215.754C191.795 212.66 191.577 209.236 190.358 206.341C188.932 202.949 187.13 203.626 184.113 204.563C179.956 205.855 175.688 206.392 171.414 207.087C160.983 208.782 151.883 212.201 142.404 217.047C133.03 221.838 123.938 226.567 115.577 233.229C111.341 236.605 107.691 240.27 104.291 244.572C101.664 247.897 97.743 253.086 100.947 257.413ZM145.404 318.408C145.486 319.887 161.425 315.423 163.523 314.922C177.286 311.636 191.321 307.894 204.314 301.957C216.442 296.416 227.128 290.076 236.671 280.231C241.12 275.642 245.121 270.809 248.95 265.663C250.869 263.083 253.49 263.382 255.63 261.2C257.555 259.236 259.031 257.702 258.43 254.766C253.62 256.114 244.739 264.594 239.753 260.312C236.911 257.872 240.852 255.322 242.672 253.908C246.093 251.248 249.018 247.967 251.737 244.524C247.068 245.487 242.722 247.349 238.659 249.939C236.854 251.09 230.666 255.264 229.226 251.285C228.339 248.836 232.535 245.758 233.843 244.403C237.055 241.076 240.523 237.192 242.228 232.719C238.012 231.678 234.037 235.147 231.166 237.972C227.978 241.109 224.071 244.401 221.399 248.015C220.02 249.879 219.72 252.081 218.643 254.092C217.431 256.354 215.492 258.293 213.639 259.967C210.07 263.193 205.895 265.567 201.609 267.532C191.816 272.02 181.319 275.196 170.881 277.424C165.759 278.517 160.764 279.021 155.567 279.206C151.527 279.351 149.739 280.636 148.197 284.598C144.023 295.318 144.781 307.112 145.404 318.408ZM265.276 236.723C267.612 239.049 270.646 240.509 273.088 242.745C275.236 244.713 277.714 246.812 280.111 248.404C282.671 250.102 284.583 248.911 286.888 247.374C289.593 245.571 292.704 244.841 295.49 243.227C305.124 237.646 316.911 223.969 315.112 211.412C314.35 206.089 311.765 200.852 307.071 198.437C302.807 196.245 296.61 195.028 292.049 196.861C289.476 197.895 287.635 200.178 285.987 202.422C284.065 205.038 283.329 204.626 281.371 202.103C277.868 197.589 272.092 193.628 266.382 193.724C263.544 193.771 260.724 194.408 258.168 195.662C257.822 195.832 257.629 196.347 257.281 196.521C256.854 196.735 256.152 196.29 255.856 196.49C255.107 196.994 254.36 198.57 253.928 199.37C252.196 202.578 249.076 208.87 252.22 211.571C252.222 211.572 252.08 215.225 252.123 215.642C252.345 217.822 253.053 219.621 253.965 221.615C256.704 227.603 260.747 232.214 265.276 236.723ZM260.619 287.39C262.832 288.122 265.215 280.742 263.093 279.564C261.069 278.44 258.616 286.728 260.619 287.39ZM295.369 278.566C296.135 281.354 296.459 284.518 298.333 286.787C300.048 284.62 300.218 280.621 298.554 278.394C297.604 277.123 294.531 275.52 295.369 278.566ZM224.568 229.719C224.58 229.79 221.905 231.151 223.21 232.64C224.993 234.674 224.748 230.715 224.568 229.719ZM213.515 206.997C213.545 209.816 219.152 209.136 219.112 206.301C219.063 202.811 213.482 204.009 213.515 206.997ZM220.207 183.438C219.652 180.857 209.9 177.267 210.166 181.765C210.299 184.02 221.384 188.925 220.207 183.438ZM320.175 270.963C321.269 272.361 322.821 272.913 324.132 273.987C325.506 275.112 326.488 276.572 327.688 277.893C330.983 281.52 334.951 284.5 338.506 287.832C345.043 293.956 351.304 300.541 358.551 305.735C371.502 315.017 386.521 320.093 401.43 324.538C402.665 324.906 406.223 326.393 407.445 325.286C408.763 324.092 408.093 319.89 408.032 318.302C407.785 311.789 407.071 305.199 407.149 298.696C407.181 296.025 407.915 292.228 406.606 289.784C405.144 287.054 401.062 286.255 398.537 285.228C390.863 282.106 383.471 276.839 376.691 271.961C368.358 265.965 359.942 259.869 351.366 254.27C342.964 248.786 333.697 245.114 324.324 241.982C323.89 242.953 328.362 246.078 328.874 246.516C331.325 248.617 333.993 250.796 335.813 253.569C337.102 255.532 338.423 259.976 334.865 260.089C333.14 260.145 330.59 258.369 329.027 257.795C326.443 256.846 323.782 256.18 321.08 255.746C323.403 258.469 331.276 263.359 329.844 267.887C328.454 272.281 320.414 267.154 317.647 267.154C318.1 268.686 319.241 269.767 320.175 270.963ZM415.157 283.226C420.306 285.153 425.583 286.249 430.897 287.493C435.962 288.679 440.644 289.573 445.832 288.879C452.995 287.92 460.921 284.762 461.829 276.098C462.906 265.833 456.096 256.401 450.247 249.036C443.13 240.076 435.138 232.066 426.477 224.812C417.825 217.566 408.487 211.178 398.703 205.784C391.261 201.682 382.855 199.19 374.985 196.111C373.488 195.526 369.347 193.467 367.946 195.173C366.815 196.552 368.355 198.851 368.871 200.131C369.877 202.628 370.016 205.142 370.275 207.823C371.436 219.796 372.832 231.765 373.475 243.789C373.654 247.14 373.969 250.646 373.785 253.999C373.684 255.856 372.776 258.222 373.381 260.035C374.543 263.521 379.866 265.828 382.687 267.386C387.738 270.173 393.086 272.253 398.188 274.919C403.792 277.848 409.248 281.013 415.157 283.226ZM343.751 205.431C342.337 205.225 340.22 204.815 338.96 205.789C337.317 207.06 337.748 208.829 339.266 209.75C340.464 210.479 343.269 210.678 344.453 210.017C346.47 208.891 346.129 205.78 343.751 205.431ZM335.923 233.155C337.066 235.179 341.239 236.507 340.876 232.729C340.564 229.494 333.82 229.426 335.923 233.155ZM337.473 176.117C335.637 176.874 332.305 177.522 331.761 180.035C331.254 182.375 333.337 182.22 334.84 181.577C336.076 181.048 341.584 176.076 337.473 176.117ZM49.825 265.371C50.8973 260.929 50.0807 256.012 50.6724 251.462C51.2464 247.053 52.2794 243 53.7616 238.844C57.0436 229.643 60.8036 221.36 66.1235 213.286C76.1429 198.079 87.7675 184.685 101.804 173.577C115.662 162.612 131.008 153.701 147.263 147.456C164.5 140.833 181.851 138.527 200.029 137.258C205.457 136.879 210.88 136.43 216.278 135.7C220.223 135.167 225.168 134.509 229.069 135.796C231.519 136.604 232.888 138.879 230.219 140.371C228.326 141.43 225.848 141.556 223.758 141.838C226.283 150.377 230.392 158.945 236.903 164.824C243.259 170.564 251.765 172.532 259.787 173.988C264.137 174.777 269.008 175.387 273.426 175.047C276.219 174.832 278.398 173.456 279.525 176.518C280.307 178.645 280.677 180.98 281.708 177.768C282.927 173.97 283.526 173.994 287.319 172.915C295.076 170.71 303.969 168.697 310.737 163.927C317.758 158.977 320.2 150.97 324.119 143.515C325.089 141.672 328.012 137.943 326.519 135.831C325.152 133.9 320.709 134.093 318.674 133.891C316.527 133.679 314.367 133.67 312.213 133.581C310.965 133.529 308.454 134.074 308.956 132.09C309.714 129.099 317.83 129.482 319.846 129.434C323.594 129.344 327.394 129.436 331.123 129.875C349.615 132.052 368.272 136.077 386.166 141.445C420.882 151.857 454.506 171.045 479.841 198.687C504.161 225.221 511.866 269.377 496.915 303.257C489.146 320.864 472.284 328.097 455.938 333.939C447.316 337.02 438.187 339.43 429.022 338.849C424.624 338.57 420.451 337.309 416.161 336.36C414.291 335.945 412.162 335.284 410.24 335.451C408.786 335.578 407.388 336.999 406.024 336.244C405.056 335.707 404.635 334.169 403.451 333.513C402.031 332.727 400.308 332.443 398.773 332.046C394.508 330.943 390.378 329.155 386.209 327.689C381.898 326.172 377.829 324.219 373.693 322.244C371.604 321.247 366.77 317.192 365.409 320.156C364.788 321.509 365.053 324.119 364.902 325.538C364.637 328.019 364.326 330.495 363.986 332.967C363.236 338.407 362.339 343.825 361.42 349.236C359.761 358.999 357.623 368.346 354.048 377.53C351.193 384.863 348.687 393.175 343.387 399.008C341.073 401.554 337.916 402.7 334.597 401.9C330.822 400.99 328.943 397.34 326.652 394.389C321.61 387.895 313.286 382.919 305.599 381.128C296.186 378.934 287.018 382.142 278.033 384.869C268.53 387.754 258.855 390.502 249.526 393.969C240.834 397.201 231.448 401.973 222.021 401.558C213.8 401.196 206.121 394.074 200.193 388.646C194.238 383.193 186.793 375.21 178.231 375.853C173.979 376.171 170.105 378.354 165.963 379.242C161.417 380.216 156.579 380.355 151.956 380.718C146.217 381.169 133.378 379.576 131.255 372.227C130.94 371.137 130.938 368.892 132.291 368.456C133.535 368.055 134.171 369.603 135.349 369.532C137.748 369.388 139.621 364.938 140.939 363.214C146.255 356.259 153.548 351.07 159.514 344.786C166.251 337.691 172.002 329.095 177.079 320.616C174.784 319.981 172.308 321.036 170.087 321.536C167.388 322.145 164.758 322.88 162.099 323.66C159.168 324.519 156.195 325.109 153.22 325.764C151.001 326.252 148.055 326.399 146.051 327.584C144.302 328.619 143.326 329.73 141.155 330.03C138.947 330.335 136.681 330.078 134.462 330.062C128.463 330.019 122.476 329.9 116.505 329.225C95.4064 326.839 73.0413 317.34 60.3544 298.488C56.9037 293.36 54.1238 287.679 52.367 281.651C50.996 276.945 48.6319 270.313 49.825 265.371Z" fill="black"/>
<path fill-rule="evenodd" clip-rule="evenodd" d="M247.715 48.1586C242.17 48.2421 236.973 49.9922 231.807 51.9818C227.263 53.7313 222.42 55.3498 218.746 58.8417C212.138 65.1231 210.417 75.5235 209.335 84.4217C207.986 95.5253 212.475 104.841 216.253 114.887C219.786 124.282 226.271 131.893 233.979 137.693C238.018 140.731 242.481 142.564 247.151 144.172C251.894 145.805 256.488 147.993 261.563 147.984C269.27 147.973 279.137 144.076 282.42 135.994C283.914 132.314 282.459 131.653 279.468 133.653C275.129 136.555 270.946 139.686 265.876 140.973C256.042 143.471 244.265 139.602 235.642 134.498C227.023 129.395 221.237 121.73 217.37 112.185C213.468 102.556 211.952 93.0672 213.457 82.6862C214.731 73.889 217.268 65.8533 224.716 61.0777C240.794 50.7698 262.455 51.6003 276.753 64.9964C278.714 66.8328 280.653 68.6198 282.673 70.3734C283.958 71.488 285.471 72.8253 285.284 74.7529C285.124 76.4035 281.818 82.7677 285.799 80.8129C289.027 79.2278 290.781 76.1292 294.69 75.7456C298.852 75.337 303.815 78.7398 305.06 83.0225C306.248 87.1089 304.13 92.6996 300.814 95.0436C298.76 96.4951 296.5 96.2709 294.168 96.2124C293.011 96.1832 289.789 95.7829 289.023 97.0854C287.668 99.389 292.449 101.81 293.992 102.32C297.747 103.56 302.184 102.1 304.343 98.5327C306.537 94.9057 308.039 90.708 308.341 86.387C308.63 82.247 307.747 78.0554 305.453 74.6561C303.012 71.041 298.037 66.988 293.578 68.2439C291.642 68.789 290.087 70.9178 288.187 71.3223C286.988 71.5771 287.492 71.7595 286.499 70.8134C285.869 70.2133 285.273 69.1057 284.69 68.3943C281.343 64.3037 278.034 59.9381 273.937 56.6641C266.591 50.7935 256.828 48.0207 247.715 48.1586ZM268.028 129.259C267.159 127.091 265.563 130.958 265.091 131.605C264.157 132.884 261.96 133.879 262.055 135.766C262.212 138.88 266.2 138.303 267.53 136.678C269.044 134.828 268.885 131.4 268.028 129.259ZM239.692 114.512C237.541 118.081 240.163 121.934 241.864 125.093C243.491 128.113 245.001 131.527 246.895 134.367C250.038 139.081 256.877 133.981 257.08 129.136C257.235 125.427 254.767 127.041 253.183 128.427C251.552 129.853 250.78 130.209 249.07 128.65C245.631 125.514 244.086 120.27 241.709 116.299C241.237 115.512 240.383 115.038 239.692 114.512ZM233.559 115.659C233.004 117.385 234.168 121.959 230.932 121.502C229.144 121.249 228.762 118.518 227.823 117.326C224.662 113.32 225.631 120.898 226.457 122.795C228.278 126.975 233.373 129.855 235.9 124.552C236.84 122.579 236.836 120.089 236.358 117.969C236.098 116.814 234.582 112.472 233.559 115.659ZM262.413 107.485C262.699 109.499 264.478 113.511 262.306 114.952C260.396 116.22 257.069 113.466 255.597 112.316C254.069 111.121 250.604 107.693 250.469 111.959C250.399 114.133 252.444 116.742 253.903 117.995C257.017 120.667 263.485 123.063 265.78 118.035C267.029 115.295 266.346 111.396 265.519 108.635C264.85 106.398 261.721 102.62 262.413 107.485ZM221.58 96.4588C220.314 98.0248 217.311 101.533 218.944 103.764C220.852 106.37 223.954 101.588 225.177 100.256C226.279 99.0572 228.596 95.6424 227.608 93.8312C225.972 90.8339 222.693 95.0838 221.58 96.4588ZM241.494 89.7155C237.353 92.5872 242.797 94.655 245.156 94.9121C248.011 95.222 251.661 95.4277 254.283 93.9366C257.999 91.8229 256.761 88.6302 253.158 87.8659C249.464 87.0829 244.707 87.4866 241.494 89.7155ZM295.33 80.5737C292.285 81.2045 288.807 82.0254 287.769 85.5594C286.698 89.2118 288.237 90.4239 291.348 89.6017C294.226 88.8407 298.524 88.0749 300.152 85.0825C302.096 81.5074 298.154 79.9896 295.33 80.5737Z" fill="black"/>
<path fill-rule="evenodd" clip-rule="evenodd" d="M462.897 159.054C463.919 162.567 469.092 164.897 471.671 167.033C480.694 174.504 489.51 182.283 497.667 190.81C501.901 195.236 505.105 200.59 508.777 205.512C509.672 206.713 511.259 209.404 513.016 209.151C514.944 208.875 515.334 205.341 515.272 203.798C515.062 198.535 510.546 193.453 507.326 189.829C503.703 185.754 499.831 181.783 495.876 178.073C491.521 173.988 486.795 170.477 481.98 167.04C477.251 163.664 472.717 159.765 467.8 156.707C465.483 155.267 461.636 154.72 462.897 159.054ZM147.509 125.691C143.743 125.817 140.068 127.132 136.517 128.352C128.704 131.038 121.263 134.763 113.925 138.657C101.061 145.482 88.6819 153.74 77.3345 163.129C74.9623 165.091 72.5305 166.681 69.9511 168.286C68.3002 169.314 65.9464 170.568 65.3104 172.663C63.6948 177.988 71.8492 172.643 73.0065 171.879L74.6342 170.804C98.7782 154.876 122.894 139.401 150.204 130.266C151.659 129.78 152.112 128.399 151.348 127.029C150.521 125.545 148.909 125.644 147.509 125.691ZM463.996 136.836C464.17 138.457 465.896 138.826 467.059 139.346C471.401 141.287 475.851 142.943 480.182 144.917C488.218 148.579 495.599 153.895 503.987 156.674C505.904 157.311 506.187 155.251 505.674 153.85C505.102 152.286 503.385 151.188 502.144 150.283C498.562 147.671 494.499 145.793 490.522 143.979C486.578 142.179 482.518 140.817 478.475 139.308C474.717 137.906 470.355 135.295 466.32 135.102L466.143 135.093C464.859 135.024 463.792 134.932 463.996 136.836ZM140.655 112.204C144.494 111.054 140.867 108.467 138.585 108.649C136.039 108.852 133.579 110.131 131.165 110.902C123.784 113.261 116.943 115.841 110.047 119.503C109.019 120.049 104.489 122.641 107.485 123.788C109.562 124.583 114.413 121.172 116.196 120.354C124.031 116.758 132.451 114.659 140.655 112.204Z" fill="black"/>
<path fill-rule="evenodd" clip-rule="evenodd" d="M293.715 120.579C293.235 119.08 287.299 102.695 289.622 102.201C292.083 101.677 295.373 111.183 296.087 112.901C298.724 119.244 300.285 126.051 301.508 132.855C302.36 137.593 303.109 142.446 302.81 147.29C302.581 151.012 301.137 151.576 298.757 153.857C298.757 142.55 297.142 131.28 293.715 120.579Z" fill="black"/>
</svg>
