<svg width="565" height="451" viewBox="0 0 565 451" fill="none" xmlns="http://www.w3.org/2000/svg">
<ellipse cx="287.171" cy="202.903" rx="194.9" ry="194.429" fill="#EAF5EB"/>
<path fill-rule="evenodd" clip-rule="evenodd" d="M167.3 259.605C169.919 279.241 172.536 298.877 175.155 318.512L177.269 334.369C177.536 336.37 177.284 340.317 178.301 342.108C178.66 342.74 179.604 343.04 180.298 343.412C182.686 344.695 185.076 345.978 187.465 347.26C207.673 358.11 227.881 368.959 248.088 379.809C267.482 390.221 286.876 400.633 306.27 411.045C308.277 412.123 311.523 414.934 313.689 414.194C315.749 413.49 317.853 411.753 319.723 410.658C323.312 408.554 326.901 406.451 330.49 404.348C352.208 391.62 373.925 378.892 395.643 366.165C404.603 360.914 413.563 355.663 422.524 350.411C424.975 348.975 427.427 347.538 429.879 346.101C431.161 345.35 431.328 345.376 431.832 344.101C433.719 339.332 434.593 333.87 435.928 328.923C437.4 323.47 438.871 318.018 440.342 312.566C440.998 310.133 440.69 309.819 439.62 307.47C437.503 302.822 435.385 298.174 433.268 293.526C428.568 283.209 423.869 272.893 419.168 262.576C417.268 258.404 412.69 255.469 409.394 252.4L358.221 204.757C356.922 203.547 355.622 202.337 354.322 201.127C354.108 208.4 352.671 216.219 354.779 223.245C358.239 234.776 361.698 246.307 365.157 257.838C366.829 263.412 368.5 268.985 370.173 274.558C370.483 275.593 372.374 279.7 371.869 280.61C371.589 281.115 369.2 281.626 368.683 281.822C366.46 282.668 364.237 283.514 362.014 284.36C355.821 286.716 349.627 289.072 343.434 291.428C337.864 293.547 332.293 295.666 326.723 297.785C324.834 298.504 322.616 299.835 320.621 299.724C318.836 299.625 316.807 298.742 315.08 298.297C312.044 297.515 309.008 296.733 305.972 295.951C300.008 294.415 294.044 292.879 288.08 291.342C281.37 289.614 275.704 284.538 269.966 280.781C260.103 274.323 250.24 267.865 240.377 261.407C238.119 259.929 238.111 259.085 237.211 256.386C235.189 250.319 233.167 244.253 231.145 238.187C230.065 234.948 228.737 231.695 227.922 228.379C226.577 222.906 225.779 217.241 224.714 211.707C224.393 210.038 224.071 208.368 223.75 206.699C219.62 208.375 215.489 210.051 211.358 211.728C210.76 211.971 207.842 212.695 207.583 213.29C207.419 213.667 208.286 215.374 208.41 215.741C211.835 225.885 215.26 236.028 218.686 246.171C219.763 249.362 220.84 252.553 221.917 255.744C219.343 251.698 216.768 247.652 214.194 243.607C212.171 250.411 210.148 257.215 208.125 264.019C203.344 258.502 198.563 252.985 193.781 247.468C192.126 252.985 190.471 258.502 188.816 264.019C183.667 257.215 178.518 250.411 173.369 243.607C172.757 247.157 172.145 250.708 171.532 254.259C171.348 255.33 171.385 258.405 170.671 259.254C170.084 259.952 168.392 259.605 167.3 259.605Z" fill="#079911"/>
<path fill-rule="evenodd" clip-rule="evenodd" d="M493.311 302.05C493.021 311.293 493.222 323.291 488.164 331.418C487.347 332.73 484.582 336.815 484.273 333.221C483.97 329.693 484.838 326.198 483.978 322.629C483.518 320.719 481.971 316.547 479.325 318.272C477.978 319.152 477.622 321.322 477.095 322.693C476.315 324.72 475.441 326.716 474.619 328.728C471.751 335.751 468.778 344.133 462.401 348.781C463.236 342.725 465.51 336.258 463.981 330.136C463.46 328.049 461.882 324.239 459.163 325.462C456.514 326.653 454.797 331.968 453.547 334.335C449.757 341.51 445.88 348.551 441.613 355.459C439.466 358.933 437.148 362.109 434.339 365.081C432.583 366.94 430.393 370.082 427.626 370.359C427.626 365.061 429.369 359.942 430.961 354.953C432.672 349.589 434.233 344.178 435.914 338.804C437.371 334.141 438.568 329.515 439.538 324.734C439.94 322.757 440.258 320.71 441.944 319.432C443.458 318.285 445.852 317.739 447.541 316.895C451.977 314.679 456.538 312.288 460.659 309.533C462.351 308.402 463.807 306.942 465.579 305.927C467.598 304.771 469.482 303.799 471.35 302.39C479.407 296.312 486.672 288.836 491.566 279.936C492.361 283.512 493.413 287.005 493.53 290.691C493.648 294.47 493.43 298.273 493.311 302.05ZM426.993 344.535C425.705 342.358 423.741 343.25 422.011 344.299C419.327 345.927 416.635 347.544 413.937 349.151C408.446 352.423 403.056 355.865 397.692 359.339C386.771 366.407 375.47 372.193 363.957 378.176C352.829 383.959 342.141 390.84 331.715 397.796C329.21 399.467 326.722 401.178 324.316 402.991C322.18 404.6 320.472 406.86 318.224 408.293C315.883 409.784 314.273 408.574 312.034 407.474C309.234 406.098 306.315 404.945 303.453 403.704C291.901 398.696 280.316 393.497 269.079 387.813C257.909 382.164 247.326 375.654 236.624 369.188C231.527 366.109 226.517 362.835 221.49 359.643C216.139 356.246 210.6 353.702 204.988 350.814C202.504 349.536 200.305 347.801 197.754 346.639C195.073 345.418 192.241 344.542 189.84 342.78C188.764 341.99 187.855 341.046 186.625 340.487C185.615 340.029 184.469 339.952 183.471 339.465C181.442 338.474 180.861 336.463 180.468 334.371C177.941 320.945 176.598 307.147 175.133 293.571C174.31 285.937 173.391 278.332 172.254 270.738C171.741 267.315 172.772 264.662 173.314 261.332C173.946 257.442 174.196 253.47 174.62 249.554C176.619 253.258 178.348 257.145 180.892 260.525C182.767 263.016 185.97 266.548 189.423 266.465C194.79 266.335 194.545 257.13 194.761 253.477C197.205 255.659 197.947 259.213 199.976 261.747C201.829 264.061 204.35 266.932 207.195 267.968C213.185 270.15 212.609 259.031 212.279 255.878C212.114 254.296 211.221 251.793 213.34 252.514C215.291 253.179 217.19 255.932 218.83 257.195C221.665 259.379 224.775 261.193 227.683 263.277C231.292 265.864 235.186 267.733 238.865 270.141C241.166 271.648 243.676 271.986 246.185 273.094C249.86 274.718 253.107 277.137 256.605 279.084C263.533 282.936 271.218 286.391 278.795 288.713C281.247 289.465 284.514 291.583 286.373 289.406C287.519 288.067 288.271 286.021 289.243 284.519C290.473 282.618 291.779 280.767 293.135 278.953C297.956 272.509 303.305 266.424 309.246 260.989C316.158 254.666 323.717 248.976 331.801 244.237C335.274 242.201 349.778 233.074 352.966 239.497C350.346 239.334 348.076 240.292 345.835 241.492C345.289 241.785 342.469 243.799 343.129 242.024C342.31 242.178 341.591 243.246 340.971 243.721C339.899 244.541 338.273 245.489 337.032 246.169C335.805 246.84 334.289 247.005 333.171 247.819C332.763 248.116 332.515 248.599 332.125 248.92L331.009 248.929C330.842 249.547 330.674 250.165 330.507 250.784C329.876 248.761 328.976 251.392 327.922 252.246C327.288 252.76 326.284 253.289 325.538 253.621C324.98 253.868 324.894 253.292 324.352 253.73C323.871 254.119 323.564 254.976 323.047 255.464C322.412 256.061 321.599 256.525 320.891 257.034C319.535 258.011 318.101 258.778 316.727 259.703C314.879 260.949 313.91 263.091 312.116 264.394C311.266 265.011 309.945 265.083 309.485 265.478C308.332 266.47 308.712 267.973 306.56 268.039C306.756 268.352 306.874 268.692 306.914 269.059C306.401 268.971 305.946 268.758 305.547 268.421C305.636 270.567 303.526 271.334 302.261 272.655C301.532 273.416 300.623 274.487 300.109 275.403C300.023 275.557 299.86 276.78 299.825 276.796C299.629 276.89 298.441 275.846 298.553 275.933C298.221 277.916 296.303 279.79 295.462 281.626C295.02 282.593 294.57 284.148 293.698 284.828C293.461 285.013 292.731 284.82 292.128 285.462C291.686 285.933 291.175 286.805 290.995 287.43C290.876 287.847 291.02 288.927 290.848 289.178C290.532 289.636 290.041 289.176 289.547 289.514C288.633 290.14 288.61 291.118 287.273 291.246C288.195 293.485 293.758 294.175 295.78 294.812C301.498 296.611 307.497 298.409 312.842 301.165C314.225 301.878 315.533 302.465 315.778 304.108C316.119 306.393 314.955 309.431 314.732 311.74C314.13 317.973 314.007 324.39 314.133 330.65C314.252 336.58 314.444 342.565 314.721 348.487C314.977 353.978 316.084 359.361 316.681 364.813C316.845 366.31 316.736 373.058 319.309 372.718C321.457 372.435 320.101 367.825 320.061 366.504C319.971 363.579 320.586 360.594 320.56 357.643C320.548 356.225 321.168 355.003 321.228 353.646C321.287 352.305 320.621 351.245 320.82 349.855C321.012 348.521 324.956 340.848 321.168 341.746C321.39 340.65 321.584 339.544 321.877 338.463C322.282 338.827 322.609 339.252 322.855 339.738C323.192 337.381 323.079 335.029 323.288 332.671C323.382 331.602 323.815 330.432 323.667 329.355C323.696 328.909 323.639 328.471 323.498 328.041C323.265 327.795 322.976 327.665 322.634 327.652C322.453 327.063 322.407 326.901 322.727 326.322C322.864 325.93 323.137 325.685 323.544 325.588C324.321 325.495 324.41 325.049 323.81 324.249C324.123 322.669 324.163 321.671 323.938 320.094C323.748 318.77 324.446 316.205 323.735 315.025C322.905 313.647 322.492 314.984 322.337 313.073C322.304 312.669 322.278 311.826 322.441 311.422C322.619 310.983 323.154 311.163 323.223 311.007C323.688 309.945 323.719 307.854 322.073 308.036C322.138 307.277 322.202 306.518 322.266 305.76C323.455 307.129 323.04 305.97 323.714 305.209C324.622 304.184 325.51 304.008 326.808 303.602C330.268 302.523 333.601 300.9 336.982 299.582C344.141 296.792 351.432 294.301 358.381 291.005C372.997 284.069 387.323 276.543 402.028 269.791C400.978 267.841 401.631 267.746 402.399 265.915C403.424 266.627 403.208 266.131 403.937 266.087C403.871 265.476 404.061 265.292 404.507 265.534C404.861 265.643 405.225 265.682 405.598 265.65C406.508 265.806 407.252 266.307 408.079 266.497C408.351 266.697 408.649 266.847 408.975 266.948C409.267 266.881 409.517 266.737 409.723 266.514C411.062 266.762 411.514 267.771 411.573 269.232C411.583 269.487 410.805 269.747 411.028 270.088C411.417 270.685 412.464 270.543 413.063 270.619C412.931 271.239 412.8 271.859 412.669 272.478C415.298 271.265 414.612 275.062 415.41 276.31C415.632 276.658 416.127 276.38 416.384 276.783C416.72 277.309 416.619 278.055 416.905 278.579C417.552 279.764 418.2 279.62 418.845 280.978C422.215 288.067 426.699 294.671 429.934 301.912C431.474 305.358 432.863 308.864 434.472 312.28C435.951 315.424 436.797 318.097 435.742 321.53C433.296 329.495 430.68 337.604 427.474 345.298C427.314 345.043 427.154 344.789 426.993 344.535ZM256.361 403.985C256.131 404.376 255.902 404.767 255.672 405.158C255.162 402.226 256.521 403.586 256.361 403.985ZM245.571 398.495C244.835 398.275 245.153 397.074 245.177 396.56C245.642 397.14 246.098 397.731 246.485 398.368C246.18 398.41 245.875 398.453 245.571 398.495ZM215.999 387.223C216.771 386.79 217.327 386.479 218.202 385.988C217.312 387.722 217.312 387.722 215.999 387.223ZM169.476 234.441C168.295 237.337 171.894 255.22 168.544 255.804C168.063 254.235 168.003 249.913 166.014 249.397C163.547 248.756 163.79 253.206 163.453 254.582C158.387 251.057 156.136 244.25 153.716 238.856C150.631 231.98 148.204 224.829 145.885 217.664C143.903 211.539 142.264 205.306 140.261 199.19C139.003 195.349 137.646 191.499 136.8 187.54C136.616 186.68 135.893 184.499 136.507 183.682C137.4 182.493 140.616 183.854 141.652 184.167C148.373 186.189 155.345 187.06 162.251 188.235C169.923 189.539 177.578 190.888 185.297 191.9C187.225 192.153 189.155 192.392 191.086 192.625C192.339 192.776 194.234 192.625 195.424 193.187C197.831 194.323 198.344 198.67 199.238 200.925C202.574 209.339 206.5 217.488 210.013 225.826C213.177 233.337 215.576 241.328 220.125 248.168C216.732 246.664 212.433 238.713 208.643 243.296C207.013 245.266 207.424 247.863 207.554 250.221C207.743 253.631 207.802 257.065 207.802 260.48C204.092 259.516 201.6 255.305 199.652 252.322C196.992 248.248 195.317 244.409 194.139 239.738C193.628 237.716 192.276 237.666 191.073 236.455C190.301 235.678 189.913 234.629 188.805 235.761C187.412 237.183 188.339 241.122 188.579 242.801C189.15 246.797 191.023 252.946 189.203 256.701C186.745 261.768 180.161 249.018 179.39 247.177C178.998 246.24 171.992 228.263 169.476 234.441ZM164.876 147.6C165.29 147.663 165.705 147.727 166.12 147.79C165.785 148.085 165.09 149.12 164.521 148.847C164.639 148.431 164.757 148.016 164.876 147.6ZM186.849 142.884C186.72 143.027 186.589 143.17 186.459 143.313C185.864 142.569 186.075 141.485 186.075 140.625C186.861 141.1 187.053 142.05 186.849 142.884ZM188.625 151.135V153.566C186.978 152.852 186.945 152.484 188.625 151.135ZM190.626 154.226C189.471 153.909 189.333 153.654 189.496 151.88C189.974 152.874 190.289 153.529 190.626 154.226ZM197.269 172.228C196.785 173.472 193.958 170.506 194.061 169.619C194.16 168.772 194.594 168.519 195.193 169.064C195.392 169.244 195.097 169.896 195.224 170.122C195.68 170.94 196.6 171.61 197.269 172.228ZM197.3 179.726C196.592 181.495 195.329 178.709 197.18 178.633C197.301 178.989 197.342 179.353 197.3 179.726ZM195.926 176.937C195.652 176.572 195.385 176.201 195.127 175.823C196.08 176.016 196.837 177.405 197.843 176.478C197.724 177.892 196.719 177.931 195.926 176.937ZM134.278 153.963C132.745 152.29 142.742 151.115 143.948 150.828C152.7 148.741 160.963 145.721 169.146 142.015C173.05 140.247 176.934 138.458 180.746 136.499C182.392 135.653 184.649 134.936 186.023 133.666C187.005 132.759 186.966 132.074 188.241 131.533C189.324 131.076 189.378 131.508 189.874 130.681C190.172 130.184 190.509 128.365 190.335 127.826C189.86 126.357 189.157 127.548 188.172 126.536C187.462 125.806 187.634 123.73 187.827 122.871C188.079 123.28 188.223 123.725 188.262 124.204C189.332 123.676 188.9 121.865 190.071 121.568C191.304 121.256 191.176 122.217 191.498 123.199C192.43 121.83 191.683 120.664 191.178 119.327C193.742 118.847 196.497 118.382 199.038 119.235C200.875 119.852 202.448 121.367 204.388 121.66C206.288 121.946 206.654 121.045 208.054 120.131C209.191 119.389 210.168 120.263 210.753 119.703C210.392 121.595 207.29 121.336 207.672 123.701C207.844 124.765 209.148 125.721 209.742 126.549C210.487 127.588 211.082 128.738 211.589 129.909C213.564 134.465 214.408 139.751 215.236 144.623C217.281 156.649 217.54 168.912 219.463 180.976C220.379 186.723 221.298 192.472 221.774 198.275C221.893 199.726 222.779 203.017 222.054 204.412C221.441 205.591 220.077 205.594 218.88 205.879C216.538 206.436 214.338 207.192 212.091 208.03C210.077 208.781 209.492 209.242 208.198 207.347C206.948 205.513 206.329 203.327 205.434 201.317C204.295 198.755 202.918 196.284 201.596 193.813C204.193 193.813 205.687 192.411 205.618 189.772C205.543 186.849 203.139 186.156 202.149 183.754C201.185 185.006 201.104 185.041 200.417 183.853C199.631 182.494 199.101 180.007 198.621 178.466C198.964 178.833 199.308 179.2 199.652 179.566C200.518 178.373 199.161 176.493 198.707 175.37C198.006 173.635 197.882 171.76 197.218 170.031C196.855 169.087 196.015 168.344 195.81 167.359C195.672 166.7 196.223 166.072 196.092 165.403C195.865 164.238 194.547 162.988 194.137 161.803C193.506 159.98 192.822 158.375 192.039 156.599C190.981 154.196 191.227 151.673 191.033 149.115C190.832 146.463 189.983 143.925 189.683 141.284C189.475 139.46 190.125 137.162 188.744 135.701C188.583 138.13 189.279 138.092 186.997 138.529C184.398 139.026 182.514 140.962 180.057 141.54C179.55 141.659 179.181 139.447 179.379 142.465C178.2 141.595 175.685 142.675 176.624 143.191C175.913 143.952 174.512 143.426 174.278 144.565C171.861 142.216 167.985 150.214 165.107 146.042C164.632 148.869 162.585 150.541 159.836 150.915C158.454 151.102 157.603 151.563 156.376 151.977C156.127 152.061 156.036 152.419 155.741 152.515C155.291 152.662 154.63 152.219 154.306 152.305C153.645 152.48 152.911 153.349 151.989 153.522C150.932 153.72 149.779 153.629 148.721 153.507C147.398 153.353 146.816 153.197 145.521 153.632C144.356 154.025 143.108 155.123 142.026 153.927C140.328 156.866 136.278 156.148 134.278 153.963ZM212.807 118.499C211.522 118.345 212.414 117.239 213.01 116.907C214.627 116.006 214.195 118.665 212.807 118.499ZM141.629 129.045C149.173 118.16 162.078 110.681 173.433 104.389C179.635 100.952 185.966 97.6202 192.478 94.8072C195.716 93.4092 198.991 92.0653 202.298 90.8372C204.063 90.1813 205.85 89.5849 207.638 88.9913C208.132 88.8274 209.031 88.3243 209.549 88.3734C209.46 88.3646 210.835 88.7386 210.565 88.8561C211.451 88.4705 211.872 87.4648 212.914 87.0626C214.084 86.6102 215.576 86.4232 216.83 86.3824C217.939 86.3459 218.899 86.8044 219.956 86.8403C220.651 86.8634 221.241 86.5335 221.922 86.485C222.27 86.4607 222.239 86.9815 222.448 87.0118C222.539 87.0251 223.466 86.677 223.475 86.683C223.813 86.8998 224.112 87.7461 224.417 88.0766C225.292 89.0244 226.576 89.6848 227.743 90.1835C229.163 90.7903 232.627 91.4005 231.022 93.6459C232.162 93.482 232.693 94.5126 231.265 94.7735C230.491 94.9153 230.161 94.2069 229.587 93.7237C228.26 92.6092 225.039 91.0226 223.128 91.0943C222.053 91.1346 221.222 91.9505 220.231 92.2468C219.255 92.5381 218.771 92.0862 217.915 92.158C216.914 92.2413 216.27 93.0881 215.316 93.2387C214.423 93.38 213.925 92.7709 213.127 92.8134C212.178 92.8636 211.259 93.6878 210.353 93.9647C208.912 94.405 207.854 94.7051 206.447 95.435C203.721 96.8501 200.676 97.3874 197.866 98.6055C195.62 99.5793 193.073 100.092 190.994 101.169C188.682 102.365 186.36 103.557 184.097 104.858C182.462 105.797 179.137 106.121 177.334 105.882C177.308 109.202 175.674 106.874 174.027 108.328C174.417 108.672 174.859 108.925 175.353 109.086C173.568 109.799 171.919 110.686 170.19 111.506C168.403 112.353 166.496 112.539 165.322 114.142C164.241 115.619 164.607 114.857 162.994 115.439C162.253 115.706 161.61 116.52 161.076 117.067C160.159 118.007 159.956 119.43 159.433 117.498C159.28 117.734 158.678 119.234 158.561 119.272C157.906 118.575 157.811 119.401 157.444 119.696C157.637 120.338 157.362 120.758 156.617 120.957C156.24 121.237 155.858 121.512 155.473 121.781C154.074 122.751 152.293 123.584 151.307 125.03C150.581 124.601 150.312 123.861 150.754 123.106C149.365 124.386 147.709 125.701 147.333 127.671C147.16 127.504 146.959 127.384 146.731 127.31C146.167 127.69 146.901 128.825 147.259 129.08C148.818 128.474 146.869 128.694 147.917 128.792C148.215 128.819 148.522 129.043 148.851 129.046C149.817 129.059 150.725 129.013 151.683 128.866C153.794 128.54 155.87 127.934 157.914 127.326C160.141 126.664 162.368 126.003 164.546 125.191C166.339 124.522 168.102 123.777 169.864 123.034C170.568 122.737 171.272 122.437 171.977 122.142C173.316 121.583 174.022 120.664 173.835 122.238C174.901 122.061 175.825 120.554 176.644 119.939C177.796 119.074 179.091 118.429 180.456 117.988C181.009 117.809 181.415 117.582 181.987 117.58C182.267 117.58 182.435 118.37 182.611 118.327C183.836 118.03 183.278 117.351 183.828 116.374C185.033 114.237 188.276 113.055 190.269 111.842C191.533 111.071 192.431 110.034 193.598 109.181C194.144 108.782 194.541 108.605 195.113 108.437C195.551 108.307 196.088 109.313 196.372 108.302C195.353 107.885 194.513 107.372 193.533 107.068C192.839 106.852 193.671 106.115 192.572 106.554C192.131 106.73 191.979 107.584 191.817 107.942C190.59 106.846 187.138 107.981 185.682 108.44C185.581 108.472 185.132 108.235 184.92 108.249C184.079 108.305 183.494 109.437 182.941 109.924C181.469 111.22 179.873 111.762 178.061 112.502C178.544 109.868 182.087 108.789 184.155 107.78C187.179 106.304 189.993 104.421 193.303 103.628C195.508 103.099 198.429 102.674 199.381 105.237C199.951 106.773 200.023 110.59 198.095 111.299C197.891 110.582 198.543 109.969 198.74 109.347C196.82 110.08 196.504 112.385 195.047 113.588C194.227 114.264 193.935 114.481 193.538 115.134C193.145 115.783 192.956 116.388 192.035 117.078C190.528 113.878 190.783 118.262 190.019 118.812C190.326 118.59 188.773 119.236 188.959 119.168C188.887 119.194 188.211 118.099 187.772 118.122C186.974 118.164 187.127 119.043 186.743 119.485C185.439 120.982 183.755 121.964 181.657 121.729C181.608 122.794 181.936 124.067 180.482 124.164L180.291 121.802C179.499 122.603 178.457 123.364 177.813 124.291C177.079 125.347 177.158 125.997 175.941 126.7C174.67 127.436 171.966 128.884 170.453 129.01C170.827 128.479 170.761 127.999 170.256 127.572C169.495 128.357 168.372 128.434 167.562 129.142C170.373 130.317 165.402 130.256 164.771 130.389C164.349 130.479 163.981 130.863 163.553 130.95C162.985 131.065 162.912 130.468 162.423 130.657C161.708 130.934 161.999 131.716 161.25 132.109C160.713 132.391 159.802 132.387 159.195 132.656C157.751 133.296 154.673 134.713 153.696 132.994C153.201 135.943 148.147 134.148 146.277 133.949C143.715 133.677 139.252 132.475 141.629 129.045ZM152.39 98.8687C152.752 98.5592 153.115 98.5818 153.478 98.9371C152.973 96.268 156.882 94.9721 158.587 93.8373C160.849 92.3323 163.511 89.4122 166.471 89.6434C165.966 90.0174 165.463 90.3915 164.958 90.7655C165.678 90.8587 166.398 90.952 167.117 91.0452C166.711 91.641 166.305 92.2363 165.898 92.8316C165.234 89.1706 161.768 93.7926 160.765 94.4662C159.755 95.1442 158.748 95.6496 157.85 96.4766C156.961 97.2958 156.158 98.771 154.688 98.034C154.554 100.125 152.873 99.5577 151.711 100.716C151.662 99.9892 152.078 99.4755 152.39 98.8687ZM167.745 88.4313C171.323 87.0913 174.438 84.6137 177.809 82.8438C181.029 81.1529 184.315 79.6347 187.588 78.0574C189.249 77.2569 192.291 75.187 194.189 76.2418C196.751 77.6663 193.225 78.1258 192.309 78.619C191.97 76.4255 190.783 78.4127 191.492 79.633C189.538 78.7889 185.275 82.0913 183.41 83.0022C182.988 83.2085 183.177 83.3277 182.697 83.5704C182.579 83.63 181.356 83.9086 181.005 84.0261C179.25 84.6137 178.093 84.1469 177.336 86.266C177.178 85.7672 177.02 85.268 176.861 84.7687C175.763 87.2364 172.422 88.3166 170.286 89.7758C169.735 90.152 168.163 91.6112 167.465 91.3095C166.493 90.8891 166.883 88.7541 167.745 88.4313ZM232.286 95.8714C233.796 95.9712 232.34 96.6757 232.755 97.1414C232.708 97.0889 233.664 97.9049 233.539 97.6809C233.708 97.9821 234.113 97.9711 234.321 98.5835C235.035 100.689 231.915 102.865 230.863 104.06C228.818 106.384 227.635 109.328 225.504 111.577C224.541 112.594 223.583 113.295 222.249 113.674C221.315 113.94 220.327 113.656 219.468 114.554C218.777 115.277 218.934 115.688 218.17 116.072C216.823 116.75 216.23 116.156 214.921 117.621C213.794 114.557 217.032 114.562 218.722 112.85C221.054 110.486 223.61 108.101 225.798 105.572C227.741 103.325 228.519 101.355 229.442 98.6248C229.732 97.7642 230.049 95.9188 230.851 95.3787C232.099 94.5379 231.35 95.809 232.286 95.8714ZM239.713 175.469C243.675 171.038 248.59 167.059 253.917 164.39C255.821 163.435 258.531 162.183 260.504 163.652C262.44 165.092 262.023 167.965 261.243 169.919C260.496 169.625 261.201 166.879 260.813 166.2C259.967 164.72 258.141 165.506 256.899 166.002C255.443 166.584 254.144 167.226 252.992 168.281C252.524 168.709 251.629 169.092 251.329 169.386C250.879 169.199 250.614 169.336 250.534 169.795C250.627 170.076 250.616 170.353 250.501 170.625C250.435 170.712 249.85 170.357 249.766 170.428C249.387 170.753 249.031 171.135 248.658 171.437C247.908 172.043 247.27 172.33 246.58 173.175C245.247 174.809 243.484 175.766 242.145 177.322C241.843 177.674 241.481 178.576 241.413 178.655C240.736 179.445 239.732 180.07 238.969 180.907C237.649 182.352 236.239 183.321 234.716 184.56C234.06 185.093 233.295 185.668 232.858 186.409C232.66 186.747 232.548 188.601 232.54 188.609C231.046 190.246 231.337 186.955 231.45 186.542C232.663 182.102 236.765 178.768 239.713 175.469ZM231.559 205.495C231.745 206.193 231.898 206.769 232.086 207.477C230.902 206.505 230.902 206.505 231.559 205.495ZM230.28 207.779C229.844 208.218 229.407 208.654 228.966 209.087C227.997 208.062 230.457 207.604 230.28 207.779ZM229.665 190.146C229.201 192.021 227.505 194.293 226.338 195.773C226.467 195.61 225.343 195.938 225.215 196.012C224.8 196.253 225.794 197.812 224.355 197.115C223.844 197.404 224.85 198.582 224.156 199.108C222.15 194.538 227.627 190.578 229.748 187.185C230.785 188.137 229.925 189.095 229.665 190.146ZM216.635 214.859C218.098 215.235 218.859 214.998 219.846 213.562C220.44 212.699 220.657 211.171 222.014 212.461L222.254 210.801C224.192 211.596 224.029 214.47 224.876 216.062C225.288 214.261 226.264 209.229 229.252 210.036C232.607 210.942 227.024 216.712 226.505 218.125C225.365 216.355 225.813 218.001 224.943 218.251C224.197 218.465 223.03 217.916 222.124 217.966C219.364 218.116 216.94 219.357 214.419 220.408C213.781 218.687 213.143 216.967 212.505 215.246C213.989 215.36 217.057 211.41 217.493 214.281C216.393 214.089 216.083 214.138 215.546 215.14C215.889 214.966 216.252 214.872 216.635 214.859ZM222.83 237.318C222.825 237.304 225.684 237.481 225.939 237.388C227.895 236.673 227.172 234.454 227.572 232.886C228.379 233.627 227.951 234.981 228.2 235.94C228.492 237.068 229.337 238.029 229.415 239.235C229.593 241.96 227.357 241.355 225.663 242.237C224.214 242.99 224.054 243.938 222.831 241.907C222.5 241.358 221.788 239.926 221.861 239.223C221.933 238.527 223.035 237.948 222.83 237.318ZM225.134 249.109L224.343 248.223C226.699 248.944 225.309 247.86 225.851 246.378C227.659 247.582 229.134 248.819 230.564 246.409L233.036 256.378C231.376 256.769 229.234 254.204 228.096 253.323C227.438 252.813 223.788 250.852 225.98 250.281C225.697 249.89 225.415 249.499 225.134 249.109ZM241.267 217.805C239.895 219.11 238.513 219.84 237.019 220.866C235.709 221.766 236.16 222.8 235.024 223.804C234.27 224.471 232.502 225.151 231.57 225.66C229.91 226.567 228.423 226.74 226.716 225.725C227.18 229.466 224.618 229.758 221.429 230.499C219.908 230.853 219.008 231.393 217.911 230C217.161 229.047 216.867 227.321 217.801 226.448C219.284 225.063 223.236 225.541 225.14 224.669C226.584 224.008 228.055 220.284 229.837 221.639C228.918 220.175 229.988 219.78 230.788 218.736C231.663 217.591 232.201 216.253 233.107 215.117C234.828 212.959 237.471 210.788 239.915 209.487C242.066 208.342 243.196 209.152 243.518 211.557C243.68 212.765 243.674 214.566 242.997 215.639C242.781 215.981 242.069 215.985 241.853 216.306C241.478 216.867 241.823 217.277 241.267 217.805ZM266.508 188.79C268.225 190.119 268.057 192.91 268.328 194.811C268.709 197.491 268.433 200.084 268.392 202.813C268.349 205.672 266.946 207.535 266.285 210.215C265.552 213.196 264.604 214.775 262.958 217.277C264.743 217.558 262.087 222.889 261.649 223.58C261.173 224.329 257.338 227.781 258.982 227.781C258.075 228.977 257.088 230.205 256.184 231.368C255.828 231.826 255.204 232.006 254.924 232.329C254.353 232.986 254.318 233.572 253.909 234.339C253.289 235.502 253.085 235.191 252.269 236.036C251.705 236.619 251.336 237.388 250.783 237.947C248.999 239.747 248.772 238.273 247.775 236.886C247.622 237.258 247.351 237.49 246.961 237.585C246.649 236.016 248.798 234.431 249.702 233.477C251.182 231.915 252.535 230.194 253.843 228.485C256.646 224.824 259.164 220.935 261.151 216.768C263.266 212.335 264.954 207.536 265.831 202.699C266.5 199.012 267.136 192.687 262.209 191.75C258.626 191.068 254.676 193.245 251.722 195.007C249.922 196.081 248.112 197.148 246.397 198.356C244.536 199.666 242.927 201.519 240.907 202.57C242.012 201.995 238.366 203.726 238.924 203.239C238.663 203.466 238.888 204.161 238.715 204.474C238.49 204.882 237.708 205.285 237.357 205.548C236.43 206.245 234.95 206.957 234.528 208.106C228.649 203.913 240.34 196.467 243.337 194.571C249.281 190.81 259.625 183.462 266.508 188.79ZM282.366 148.002C282.31 144.982 284.769 140.86 286.43 138.397C287.243 137.192 288.541 137.24 289.017 135.818C289.292 134.999 288.932 134.141 289.013 133.319C289.124 132.207 289.606 131.316 290.162 130.36C295.189 121.722 301.298 114.077 307.804 106.541C311.012 102.826 314.053 98.968 317.513 95.478C318.958 94.0205 322.843 88.7805 325.065 89.3046C326.242 89.5821 326.926 91.3779 327.458 92.2942C328.336 93.8097 329.302 95.2292 330.369 96.6228C333.187 100.302 336.437 103.532 340.275 106.139C342.671 107.769 345.093 109.353 347.436 111.06C349.366 112.466 352.282 114.072 353.66 116.045C355.038 118.018 353.014 119.689 351.908 121.328C350.189 123.876 348.608 126.516 346.882 129.062C346.196 128.569 346.373 127.567 345.903 126.935C345.486 126.375 344.896 126.147 344.32 125.801C343.216 125.14 342.133 124.331 341.136 125.44C339.391 127.379 341.79 131.964 344.377 131.461C344.681 133.376 339.517 136.528 338.223 137.582C334.25 140.814 330.153 143.624 324.906 143.916C322.783 144.034 320.573 143.873 318.556 143.162C317.589 142.822 316.52 142.355 315.779 141.613C314.892 140.725 314.666 139.403 313.806 138.523C313.059 137.76 312.034 137.643 311.288 136.877C310.541 136.111 310.172 134.9 309.869 133.908C309.277 131.969 309.165 129.924 308.595 127.98C308.253 126.811 307.971 125.248 306.854 126.371C305.232 128.003 306.047 133.134 306.462 135.09C307.056 137.879 308.449 140.128 309.908 142.527C311.491 145.131 312.075 147.546 312.358 150.558C312.889 156.197 314.507 161.608 317.025 166.681C318.085 168.817 319.354 170.826 320.499 172.913C321.033 173.886 322.231 177.209 323.685 177.191C326.007 177.162 322.699 170.389 322.24 169.252C319.695 162.955 317.265 156.336 316.72 149.517C320.367 150.456 324.343 151.348 328.12 150.753C325.682 156.204 328.228 161.632 327.917 167.244C327.761 170.058 327.648 172.655 327.706 175.46C327.758 177.921 326.647 180.38 325.686 182.605C323.778 187.024 321.377 192.474 317.834 195.859C314.872 198.689 310.91 198.91 307.04 198.258C298.236 196.775 292.451 190.008 288.757 182.322C286.383 177.384 284.568 172.113 283.442 166.751C282.138 160.545 282.482 154.297 282.366 148.002ZM293.799 106.179C285.583 100.234 297.522 93.4837 303.599 94.4028C305.024 94.6179 307.647 95.2071 307.514 97.0674C307.404 98.5879 304.868 100.283 303.894 101.221C301.118 103.899 298.292 109.429 293.799 106.179ZM353.566 238.262C353.284 238.009 350.984 238.629 351.895 237.269C352.652 236.138 354.751 237.555 355.513 237.846C354.885 238.28 354.338 238.952 353.566 238.262ZM319.356 310.157C318.65 310.244 317.912 308.34 320.457 309.762C320.09 309.894 319.723 310.026 319.356 310.157ZM319.283 341.195C319.371 342.049 319.632 342.611 319.026 343.232C318.513 342.6 318.447 341.709 319.283 341.195ZM320.317 354.02C320.242 354.484 320.166 354.949 320.093 355.413C319.504 355.115 318.917 354.818 318.329 354.52C318.991 354.354 319.655 354.187 320.317 354.02ZM321.036 343.206C321.912 343.533 321.504 342.486 322.14 342.338C322.368 343.429 322.087 344.363 321.461 345.263C321.402 345.05 321.081 343.222 321.036 343.206ZM343.426 265.818C342.196 265.661 342.01 266.96 341.094 267.464C340.503 267.789 338.702 267.545 338.366 268.167C338.81 268.295 339.254 268.424 339.697 268.552C338.682 269.099 337.666 269.647 336.65 270.194C339.093 270.194 341.639 269.028 344.065 269.37C345.091 269.515 345.842 269.862 346.486 270.696C346.876 271.202 347.22 272.017 347.282 272.637C347.35 273.308 346.827 273.771 346.92 274.091C348.013 274.121 347.884 275.915 347.639 276.646C347.106 278.231 344.992 280.713 343.097 279.708C343.89 280.833 343.688 281.475 342.515 282.127C342.622 281.756 342.7 281.105 342.101 281.17C341.947 281.793 342.006 282.782 341.497 283.252C340.927 283.777 340.418 283.163 339.873 283.505C339.227 283.911 339.421 284.548 338.913 284.988C338.241 285.57 338.145 285.157 337.342 285.27C336.126 285.442 336.902 284.686 335.928 285.671C335.591 286.011 335.647 286.896 335.101 287.393C334.052 288.348 331.252 289.343 330.247 288.119C327.83 291.949 320.586 292.868 317.214 289.844C311.836 285.022 321.863 275.215 325.174 272.107C328.497 268.987 332.188 266.293 335.922 263.692C338.044 262.215 340.221 260.874 342.445 259.557C343.816 258.745 345.539 257.261 347.224 257.404C348.736 257.531 350.027 258.704 351.619 258.937C352.77 259.104 355.005 259.381 353.553 260.943C352.874 261.672 350.207 262.851 349.299 263.029C348.766 263.133 348.204 262.934 347.675 263.042C346.78 263.225 346.166 263.981 345.192 263.885C345.5 265.33 344.938 266.01 343.426 265.818ZM359.341 212.177C359.342 213.308 357.278 213.026 356.848 212.642C356.138 212.01 356.113 210.121 355.85 209.262C357.049 209.564 359.34 210.669 359.341 212.177ZM342.72 174.884C347.054 171.322 351.611 168.056 356.428 165.18C358.153 164.15 360.589 162.072 362.732 162.331C363.631 162.441 365.489 163.473 364.812 164.611C364.685 164.824 363.685 164.909 363.376 165.064C363.026 165.239 362.751 165.721 362.426 165.959C360.175 167.61 357.471 168.625 355.213 170.316C353.357 171.705 351.626 173.258 349.629 174.45C347.712 175.592 345.71 176.316 343.89 177.581C343.926 177.556 341.523 178.42 341.995 178.577C339.885 177.871 342.113 175.384 342.72 174.884ZM371.616 173.558C374.191 172.532 376.71 171.286 379.405 170.597C380.75 170.253 382.131 169.994 383.524 170.149C383.76 169.734 384.076 169.643 384.469 169.874C384.777 170.346 385.182 170.709 385.685 170.962C386.453 171.552 389.28 172.324 388.715 173.628C388.342 174.49 385.507 174.562 384.729 174.755C382.383 175.34 380.197 176.654 377.781 176.976C377.554 177.007 376.814 176.732 376.805 176.734C375.863 176.939 375.078 177.918 374.268 178.387C372.525 179.396 370.02 179.565 368.768 181.307C372.822 184.055 376.339 181.329 379.903 179.254C382.038 178.012 384.33 177.115 386.663 176.319C387.882 175.903 389.112 175.47 390.348 175.105C390.86 174.919 391.385 174.785 391.925 174.702C392.427 174.603 392.786 174.785 393.003 175.251C394.497 175.201 394.625 174.264 395.524 176.012C396.792 178.477 394.852 178.352 393.029 178.655C390.502 179.074 387.931 180.018 385.44 180.645C384.866 180.789 379.828 181.957 379.822 181.998C379.594 183.588 394.051 182.116 395.292 181.878C397.483 181.456 399.832 180.26 402.099 180.548C403.84 180.769 407.806 183.324 405.029 185.021C404.482 182.403 402.606 184.565 401.626 185.448C400.32 186.624 398.45 186.511 396.66 186.971C394.212 187.6 387.944 189.96 386.205 186.951C386.755 189.589 376.764 188.249 375.39 188.161C374.051 188.076 372.323 188.36 371.029 187.979C370.185 187.73 369.715 187.181 368.921 187.057C368.726 187.267 368.493 187.41 368.221 187.486C367.818 187.282 367.455 187.023 367.13 186.709C364.455 185.479 360.315 184.799 361.802 180.882C363.204 177.187 368.215 174.914 371.616 173.558ZM396.695 175.841C396.762 175.611 396.829 175.381 396.895 175.15C396.903 175.856 398.586 176.157 398.392 177.071C397.961 179.095 396.019 176.054 395.852 175.722C396.134 175.762 396.414 175.801 396.695 175.841ZM406.969 179.204C407.164 180.033 409.401 181.799 408.847 182.206C407.965 181.007 405.526 181.551 406.969 179.204ZM369.224 254.862C370.043 253.238 372.52 256.004 372.258 253.231C373.605 253.352 372.764 254.377 374.378 253.927C374.983 253.758 375.391 253.088 376.128 252.933C376.325 252.892 377.174 252.959 377.467 252.95C378.437 252.92 382.241 252.812 379.623 251.54C381.088 250.571 381.269 251.062 382.591 251.95C382.252 250.115 384.197 251.157 385.103 251.386C384.457 250.339 386.06 249.226 386.581 248.519C386.394 249.608 386.492 250.828 388.069 250.131C388.462 249.958 388.374 249.188 388.685 249.062C389.256 248.832 389.575 249.251 389.779 249.227C389.981 249.204 390.405 249.317 390.828 249.158C391.378 248.951 391.113 248.213 391.81 248.103C392.264 248.032 392.596 248.7 393.15 248.705C393.435 248.708 393.91 248.419 394.126 248.434C394.164 248.437 394.435 247.784 394.768 247.768C395.254 247.744 395.452 249.048 395.63 249.301C396.482 250.509 397.614 251.297 398.921 251.941C396.557 254.108 391.79 253.879 388.818 254.609C387.208 255.005 385.835 255.576 384.362 256.312C384.007 256.543 383.7 256.827 383.444 257.163C383.236 257.025 383.027 256.886 382.818 256.748C382.011 256.797 381.248 256.398 380.339 256.551C377.533 257.024 375.335 259.127 372.483 259.595C371.201 259.806 370.148 260.1 369.313 258.989C368.581 258.015 368.702 255.898 369.224 254.862ZM365.376 241.913C366.012 242.451 365.247 244.202 366.478 244.011C367.352 243.876 367.178 242.521 367.864 242.233C368.766 241.856 369.31 242.751 370.157 242.668C371.736 242.512 371.646 241.133 370.311 240.527C371.699 240.161 372.144 241.802 373.372 241.787C374.986 241.768 374.601 239.864 375.974 239.548C376.569 239.411 376.37 240.285 376.756 240.393C377.528 240.61 378.066 240.238 378.749 239.91C379.36 239.617 379.796 239.051 380.464 238.859C380.768 238.771 381.54 238.932 381.763 238.769C382.212 238.441 382.615 237.165 383.058 236.996C382.967 237.03 384.418 237.757 384.626 237.826C384.499 238.365 384.203 238.429 383.74 238.018C383.74 239.235 387.121 239.614 386.427 238.11C388.256 238.867 386.894 239.257 386.711 240.313C386.639 240.738 386.391 240.727 386.465 241.176C386.499 241.383 387.457 241.204 387.445 241.486C387.364 243.302 381.577 243.86 380.481 244.02C378.212 244.352 376.064 244.909 373.876 245.596C372.247 246.108 369.439 247.572 367.705 247.481C365.212 247.351 364.887 244.098 365.376 241.913ZM359.806 223.386C359.198 221.366 361.148 217.194 363.688 217.716C364.312 217.844 364.466 218.361 364.951 218.591C365.627 218.912 366.727 218.743 367.314 219.075C368.628 219.819 367.966 221.715 369.283 222.4C367.203 222.904 360.772 226.596 359.806 223.386ZM362.213 231.233C363.109 230.752 364.561 230.69 365.172 229.763C365.477 229.974 366.052 231.254 366.598 231.058C366.852 230.967 367.116 230.273 367.097 230.274C367.583 230.26 367.68 229.602 368.423 229.676C369.105 229.744 369.868 230.564 370.476 230.87C370.372 228.837 370.892 228.643 372.54 227.555C372.902 227.317 373.203 226.422 373.537 226.06C373.218 228.193 374.022 228.204 375.725 228.525C377.86 228.927 379.19 230.073 380.045 232.136C378.226 231.781 375.879 232.208 375.162 234.164C373.71 231.511 368.432 235.172 366.725 235.921C365.458 236.478 363.984 237.226 362.921 235.929C362.173 235.016 362.602 233.917 362.618 233.105C362.622 232.85 362.885 232.835 362.861 232.456C362.83 231.971 362.199 231.778 362.213 231.233ZM381.638 272.952C381.157 273.134 378.684 273.236 378.668 272.417C378.655 271.693 383.033 272.423 381.638 272.952ZM377.62 270.302C375.749 271.456 373.655 267.391 372.967 266.22C374.93 266.471 375.888 264.829 377.045 263.581C378.145 265.992 379.815 264.718 381.572 263.913C383.645 262.963 385.915 262.956 388.038 262.194C388.701 261.957 389.312 261.603 389.958 261.331C390.479 261.136 390.998 260.937 391.515 260.732C391.882 260.401 392.013 259.993 391.906 259.51C391.732 259.104 391.85 258.847 392.261 258.741C392.75 258.887 393.249 258.972 393.759 258.995C394.577 258.832 395.753 258.061 394.765 257.229C395.823 256.268 396.883 257.223 397.902 257.644C397.66 256.954 397.419 256.264 397.176 255.574C397.682 255.788 399.182 257.885 399.335 257.873C400.305 257.8 400.204 256.499 400.761 255.974C401.083 256.37 401.175 259.328 402.439 258.331C402.98 257.906 401.816 256.455 401.529 256.124C402.976 256.451 404.239 258.178 404.63 259.518C403.943 259.617 403.308 259.48 402.725 259.103C402.352 260.97 405.808 260.214 406.367 261.189C407.463 263.099 400.336 264.425 399.407 264.602C397.549 264.956 395.356 265.088 393.653 265.912C392.021 266.7 391.635 266.926 389.729 267.073C387.552 267.242 385.429 267.959 383.324 268.518C381.496 269.002 379.241 269.303 377.62 270.302ZM417.397 201.953C419.115 201.335 424.904 198.125 426.377 199.553C426.222 199.401 427.44 201.918 427.427 201.76C427.532 203.069 427.5 203.596 425.888 204.223C424.734 204.672 423.729 203.718 422.691 204.097C421.55 204.513 422.348 205.25 421.761 205.765C421.118 206.329 419.878 206.573 419.077 206.82C417.118 207.426 415.143 207.932 413.192 208.584C409.224 209.91 405.022 211.145 400.944 212.084C397.896 212.785 392.724 214.528 389.916 212.469C389.641 213.639 388.972 213.479 388.042 213.65C387.312 213.783 385.992 214.145 385.343 214.163C384.264 214.195 381.262 213.912 381.675 212.397C381.561 212.815 384.01 211.387 383.586 211.298C384.626 211.517 384.289 210.993 385.141 210.702C386.254 210.322 387.417 210.342 388.552 209.94C391.416 208.925 393.818 207.607 396.841 206.971C403.745 205.518 410.736 204.35 417.397 201.953ZM140.617 358.407C140.058 358.422 139.623 356.832 141.325 357.967C141.089 358.114 140.853 358.26 140.617 358.407ZM127.173 356.35C126.412 356.545 126.109 356.12 126.264 355.077C127.324 354.658 127.627 355.082 127.173 356.35ZM116.793 354.221C116.599 353.291 117.288 353.081 117.913 352.664C117.85 353.896 117.85 353.896 116.793 354.221ZM90.6776 346.567C89.6255 346.336 88.2237 345.307 87.9826 347.034C87.8066 346.634 86.9085 344.753 87.2941 344.318C87.4954 344.09 88.2579 345.144 88.1768 345.039C89.0975 343.177 90.6847 345.425 91.5719 346.089C91.2739 346.249 90.9755 346.408 90.6776 346.567ZM364.213 140.735C364.576 139.967 365.004 139.723 365.496 140.004C364.723 141.8 362.103 142.774 364.213 140.735ZM382.413 123.873C383.061 125.09 382.086 125.604 381.389 126.615C381.796 125.525 382.079 124.769 382.413 123.873ZM461.513 242.621C463.853 242.62 468.838 241.385 470.249 244.06C471.184 242.242 472.245 245.651 473.055 246.198C473.146 246.259 473.73 245.813 474.001 245.978C474.411 246.225 474.764 246.9 474.998 247.301C475.705 248.51 476.009 249.948 476.401 251.279C472.313 251.279 468.122 250.327 464.038 249.981C461.357 249.754 458.729 249.747 456.045 249.892C455.511 249.92 454.452 249.744 453.996 249.845C453.532 249.947 452.692 250.891 452.181 250.739C452.975 252.229 463.142 255.837 463.918 254.187C462.999 253.631 460.957 253.204 460.959 251.86C460.961 250.354 462.874 250.357 463.888 250.401C466.106 250.498 469.82 251.236 470.729 253.542C471.118 254.531 471.238 257.02 470.81 257.974C470.534 258.591 470.066 259.332 469.324 259.457C469.02 259.508 468.582 259.104 468.536 259.114C467.014 259.436 464.198 260.658 462.539 258.936C461.342 260.484 455.578 258.793 453.813 258.208C450.727 257.187 446.477 255.784 444.603 252.904C442.318 249.394 446.963 246.428 449.631 245.001C453.277 243.051 457.443 242.622 461.513 242.621ZM477.088 250.736C477.805 250.938 478.523 251.141 479.24 251.344C479.048 252.602 476.218 251.606 477.088 250.736ZM498.774 296.458C498.995 291.418 497.538 286.98 496.696 282.106C496.488 280.898 496.701 278.785 495.783 277.792C494.906 276.842 492.949 277.614 492.871 275.935C492.008 276.946 492.095 277.157 491.031 275.994C491.225 276.493 491.253 277 491.115 277.516C490.455 277.138 488.062 275.881 488.263 277.6C486.295 277.164 486.865 275.934 485.743 274.994C485.583 274.861 484.943 275.334 484.693 275.132C484.241 274.767 484.018 274.435 483.637 273.963C483.153 274.548 482.495 274.971 481.903 275.433C481.56 274.685 480.89 274.135 480.086 273.953C480.838 275.526 482.697 277.564 480.147 278.46C478.625 278.994 476.132 278.339 474.52 278.464C468.545 278.927 462.001 277.624 456.225 276.201C450.29 274.739 444.289 272.675 438.952 269.659C437.814 269.015 437.098 268.254 436.118 267.456C435.166 266.681 434.473 266.558 433.328 266.062C431.268 265.17 429.383 263.738 427.816 262.142C424.446 258.712 421.314 254.225 422.253 249.202C423.188 244.195 426.63 240.282 430.312 236.986C434.661 233.092 439.572 229.841 444.783 227.22C447.113 226.048 453.074 221.647 455.376 224.222C456.847 225.867 456.02 227.967 454.009 228.332C453.514 228.423 452.995 228.09 452.494 228.318C451.771 228.647 452.026 229.035 451.727 229.309C451.209 229.786 450.659 230.528 449.885 230.941C447.183 232.381 444.571 233.523 441.989 235.277C440.798 236.085 439.652 236.433 438.603 237.138C437.559 237.84 437.322 239 435.919 238.284C436.418 240.326 433.417 242.511 432.241 243.762C430.419 245.698 428.234 248.17 429.084 251.035C430.749 256.643 438.269 260.903 443.081 263.368C449.087 266.445 455.71 268.893 462.397 269.907C465.721 270.411 469.157 270.722 472.506 271.041C475.114 271.29 479.116 270.379 480.992 272.728C481.05 269.989 489.604 270.231 491.424 269.88C487.774 257.404 480.607 246.311 472.946 235.947C469.185 230.86 465.492 225.627 461.206 220.964C456.514 215.858 451.152 211.295 446.059 206.596C436.068 197.382 424.768 189.158 413.27 181.913C401.798 174.685 389.917 167.572 377.349 162.419C362.995 156.533 347.883 152.662 332.754 149.365C334.806 146.75 338.144 145.475 340.772 143.561C341.692 142.892 342.936 141.284 344.131 141.064C345.425 140.826 346.444 142.219 347.365 142.918C350.009 144.923 351.838 144.072 354.867 143.951C356.679 143.879 360.971 144.888 361.735 142.436C362.751 143.789 361.278 144.874 360.523 145.866C361.072 146.631 361.515 145.837 362.057 145.717C362.224 145.579 362.391 145.44 362.558 145.301C362.827 144.912 363.07 144.91 363.286 145.294C363.609 145.78 363.935 145.673 364.262 144.97C364.352 144.914 364.442 144.857 364.531 144.801C364.923 144.592 365.301 144.263 365.665 144.003C368.418 142.036 370.87 140.36 373.908 138.912C376.46 137.696 375.088 135.369 376.77 133.726C377.151 133.355 377.791 133.541 378.198 133.226C378.597 132.917 378.657 132.566 378.948 132.234C379.647 131.437 378.815 130.512 380.598 131.488L379.954 127.868C383.45 131.26 383.437 121.499 383.914 120.055C383.852 120.246 384.228 118.768 384.228 118.781C384.33 115.852 384.73 113.729 381.3 113.559C382.599 112.742 382.996 114.337 383.596 112.686C383.896 111.858 382.958 110.436 384.452 110.969C384.767 109.211 384.456 107.787 384.064 106.078C383.663 104.329 383.899 103.161 383.917 101.412C383.938 99.4275 383.009 97.4332 382.711 95.4791C382.478 93.9487 382.718 91.5351 380.74 92.0973C380.462 91.662 381.439 90.3231 381.399 89.661C381.337 88.6327 380.221 87.5878 379.905 86.6003C379.44 87.0802 378.785 87.2402 378.152 87.0234C378.746 85.6817 378.188 85.231 377.62 84.0741C377.294 83.4115 377.491 82.68 376.793 82.205C376.393 81.9325 375.711 82.3915 375.397 82.072C374.725 81.3879 374.974 80.4804 374.511 79.579C373.932 78.4486 372.607 77.5852 371.695 76.7367C366.563 71.9673 360.99 68.3224 354.165 66.4588C347.279 64.5786 339.252 63.905 332.389 66.0737C329.646 66.9404 327.211 66.8516 324.742 68.4702C323.942 68.9954 323.856 68.8547 323.449 69.7303C323.355 69.9344 324.208 70.4778 323.686 70.8116C323.119 71.174 322.492 70.437 322.203 69.8251C318.632 72.4103 315.285 75.8567 313.251 79.8085C311.23 83.7354 311.044 88.3486 310.273 92.6159C306.712 88.5488 301.897 86.5992 296.662 88.5543C292.099 90.258 288.564 94.0028 287.671 98.8543C287.127 101.812 287.721 104.807 289.065 107.476C289.646 108.629 290.349 109.905 291.417 110.681C292.262 111.295 293.708 111.209 294.106 112.315C294.716 114.011 291.195 117.672 290.281 119.156C288.627 121.842 287.091 124.615 285.921 127.549C281.728 121.625 277.714 115.156 272.945 109.694C268.445 104.539 263.081 99.9158 257.819 95.5586C246.899 86.5153 235.544 78.0193 223.329 70.8149C211.955 64.1064 198.216 60.3819 184.96 61.6988C172.008 62.9859 162.092 71.1773 153.747 80.625C137.703 98.7903 127.877 124.682 126.917 148.863C126.628 156.127 127.182 163.296 128.976 170.341C129.83 173.696 129.706 176.996 130.203 180.394C130.763 184.227 131.732 188.046 132.67 191.801C136.24 206.104 140.789 220.397 145.894 234.227C148.548 241.418 151.76 248.449 156.104 254.791C158.111 257.72 160.71 260.012 162.87 262.793C164.964 265.491 165.518 268.802 165.978 272.113C167.083 280.05 167.815 288.02 168.48 296.004C168.762 299.387 169.091 302.741 169.539 306.101C169.93 309.03 168.947 308.886 166.483 309.881C166.982 307.249 155.208 309.04 154.097 309.22C152.887 309.415 151.606 309.418 150.653 309.573C149.588 309.746 148.545 309.997 147.318 309.962C145.515 309.91 142.138 309.45 141.449 311.752C140.975 309.083 137.845 312.001 140.161 311.506C137.784 311.772 135.358 311.329 132.952 311.553C130.195 311.809 127.414 312.053 124.676 312.468C122.77 312.756 120.951 313.491 119.041 313.704C116.598 313.977 114.048 313.951 111.581 314.169C102.481 314.971 93.0487 316.956 84.203 319.229C82.1993 319.744 79.8971 320.11 77.9827 320.936C77.4702 321.157 77.009 321.651 76.518 321.841C75.6949 322.159 75.8074 321.939 75.0764 322.085C70.6966 322.96 66.1783 324.39 61.799 325.513C59.3699 326.135 55.4187 326.697 53.4371 328.392C52.5489 329.151 51.7726 330.498 53.196 331.361C54.333 332.05 55.9561 330.95 56.8763 330.355C56.0565 332.492 54.5101 333.557 55.3454 335.987C56.0046 337.908 57.4931 340.276 59.7831 339.037C60.0899 339.75 60.214 341.169 61.1171 341.431C61.9286 341.666 62.5162 340.638 63.3112 340.88C63.5958 340.967 63.4877 341.505 63.7426 341.645C64.1817 341.887 64.6269 341.99 65.1301 342.16C65.5626 342.307 66.2588 342.608 66.7101 342.64C66.9964 342.661 67.6711 342.171 67.6689 342.171C68.3265 342.271 68.6802 343.529 69.1535 343.892C69.7681 344.365 70.2757 344.472 71.0453 344.643C72.6451 344.999 74.7074 345.608 75.7633 343.97C75.5216 345.139 77.1122 345.025 77.8139 345.173C77.7361 344.557 77.3957 343.992 76.8705 343.654C78.4395 343.758 77.8034 345.317 78.9631 345.73C79.7895 346.023 79.6957 345.278 80.3279 345.195C81.161 345.086 81.7932 345.691 83.0941 345.133C83.376 346.386 83.4792 347.649 85.0178 347.836C85.9209 347.946 88.0267 346.315 87.9076 347.673C89.9251 347.081 90.6908 347.481 91.7451 349.259C91.9233 348.168 92.7856 348.484 93.5767 348.417C94.8307 348.31 94.8627 348.411 95.8347 347.701C95.9236 347.636 96.6882 345.885 97.028 346.973C97.1809 347.461 96.1707 348.608 95.7967 348.9C96.2612 349.135 97.7833 349.958 98.3686 349.807C98.8751 349.676 98.8767 348.81 99.4852 348.766C99.3363 349.263 99.1879 349.761 99.0384 350.259C100.222 350.431 101.211 349.639 102.147 349.059C103.038 351.313 105.586 350.043 106.972 351.739C107.705 352.637 107.74 353.319 109.136 353.553C110.566 353.793 111.814 353.166 113.029 354.345C112.644 353.613 111.685 353.006 112.638 352.22C113.287 353.141 113.622 354.25 114.37 355.106C114.473 354.671 114.576 354.236 114.679 353.8C116.629 355.886 119.084 355.904 121.583 357.06V355.534C123.371 358.263 123.467 356.536 125.603 355.421C125.458 356.224 125.312 357.026 125.167 357.829C126.705 357.713 128.142 359.534 129.404 357.987C130.166 359.266 131.09 358.636 132.34 359.042C133.05 359.274 133.579 359.973 134.271 360.226C135.307 360.606 135.617 360.588 136.593 360.919C137.461 361.212 137.954 361.784 139.04 361.967C139.746 362.086 140.386 362.077 141.061 362.045C141.322 362.032 141.236 361.445 141.816 361.582C142.712 361.794 143.38 362.919 144.025 363.495C144.996 361.054 147.715 364.324 149.029 364.759C149.155 364.133 149.132 363.379 149.585 362.865C150.117 364.03 150.32 365.009 151.424 365.76C152.061 366.193 152.997 366.503 153.733 366.661C154.198 366.761 155.043 366.641 155.335 366.785C155.834 367.029 156.018 367.682 156.521 367.743C156.818 367.779 157.257 366.999 157.479 367.06C158.494 367.337 159.057 368.57 160.082 369.237C163.133 371.221 166.971 371.414 170.37 371.849C171.223 371.958 171.346 371.725 172.039 372.225C172.409 372.493 172.241 373.306 172.696 373.534C174.409 374.392 174.41 372.561 174.769 371.423C175.336 372.17 175.433 373.157 176.208 373.752C176.631 373.74 177.055 373.749 177.478 373.781C177.716 374.053 177.873 374.367 177.946 374.722C178.972 375.415 180.134 375.174 181.194 375.694C181.541 375.865 182.157 376.896 182.585 377.192C183.352 377.723 184.537 378.007 185.412 378.237C187.248 378.72 189.881 378.078 190.973 379.995C192.423 378.441 191.862 380.297 192.847 380.687C193.429 380.917 194.303 380.002 194.948 380.093C196.109 380.256 196.527 381.514 196.899 382.428C197.607 382.27 197.121 380.269 197.101 379.83C197.98 379.727 198.175 382.041 198.327 382.55C199.715 381.882 197.437 379.802 198.929 379.135C198.792 380.907 200.204 382.365 197.683 382.619C198.031 383.686 206.163 384.871 206.728 383.929C206.853 385.671 208.022 384.044 208.454 383.448C208.502 384.464 208.156 385.906 209.296 386.378C210.071 386.698 211.817 385.869 212.121 385.11C212.468 386.27 213.05 386.232 213.773 386.969C214.269 387.475 214.596 388.352 215.117 388.775C216.075 389.555 217.858 389.436 218.974 389.262C221.159 388.921 220.901 388.502 221.679 390.773C221.855 389.911 222.407 388.109 223.369 389.449C223.982 390.3 222.678 392.176 222.301 392.924C223.143 392.461 223.979 391.913 224.937 391.714C224.99 392.009 225.039 392.635 224.898 392.908C224.927 392.853 225.948 393.538 226.327 393.728C226.236 393.682 226.627 391.976 226.616 392.032C227.964 392.864 227.029 394.455 228.222 395.275C228.531 395.487 229.255 395.24 229.628 395.369C230.277 395.594 230.839 396.202 231.416 396.558C230.955 395.94 231.021 394.903 231.053 394.19C231.346 394.352 231.556 394.959 231.852 395.007C231.964 395.025 233.125 395.179 233.118 395.173C234.326 396.02 234.077 396.126 233.04 397.144C233.41 397.727 234.96 396.714 235.379 396.546C235.467 396.774 235.49 397.601 235.655 397.749C235.755 397.994 235.855 398.239 235.955 398.484C236.265 398.253 236.597 398.176 236.951 398.253C237.175 398.331 238.923 399.042 239.042 398.799C238.66 398.675 238.313 398.485 238.003 398.23C239.012 397.323 239.675 396.841 240.605 398.15C240.722 398.315 240.32 398.908 240.439 399.123C240.883 399.924 241.796 400.561 242.415 401.214C242.672 400.313 242.075 398.057 243.499 398.139C244.637 398.204 245.503 400.962 245.109 401.819C245.561 401.324 248.262 400.833 248.772 400.987C250.214 401.424 249.809 402.757 251.583 400.804C252.792 401.639 251.726 401.955 251.944 402.972C252.264 403.039 252.566 402.96 252.852 402.735C252.638 407.059 255.829 403.755 257.9 404.416C258.714 404.675 258.922 405.598 259.794 405.868C260.256 406.01 260.77 405.673 261.219 405.755C261.578 405.704 261.936 405.641 262.291 405.565C262.741 405.339 262.953 405.591 262.925 406.322C263.649 406.697 263.375 406.844 264.222 406.917C264.767 406.964 265.268 406.397 265.888 406.493C266.956 406.661 266.815 407.482 267.498 407.91C268.113 408.296 268.806 408.284 269.562 408.209C269.948 408.171 271.031 407.674 271.161 407.672C271.97 407.661 271.531 407.489 272.502 408.184C273.258 408.726 273.575 409.076 274.503 409.326C275.568 409.611 277.455 410.235 278.172 409.466C279.139 410.916 279.896 409.852 281.173 409.948C281.826 409.997 281.93 410.252 282.511 410.353C283.453 410.517 284.629 410.375 285.631 410.697C287.211 411.204 287.389 411.459 289.003 411.528C289.295 411.414 289.586 411.3 289.877 411.186C289.964 411.672 290.193 412.069 290.564 412.376C291.467 412.565 292.06 412.11 292.805 411.61C293.36 413.339 295.161 413.49 296.701 413.717C299.186 414.084 301.563 414.284 303.96 415.101C305.984 415.791 308.012 416.566 309.959 417.449C311.672 418.226 313.289 419.389 315.228 418.843C319.62 417.606 323.877 413.097 327.552 410.508C331.905 407.442 336.599 404.915 341.147 402.158C359.253 391.183 378.382 381.899 396.235 370.515C405.981 364.3 415.025 356.916 425.492 351.888C424.002 358.045 421.466 364.296 421.924 370.743C422.108 373.34 422.873 376.409 424.888 378.223C427.379 380.465 430.153 379.038 432.536 377.436C437.64 374.004 441.044 368.995 444.865 364.293C449.384 358.73 452.888 352.753 456.207 346.412C457.002 347.528 456.397 349.398 456.409 350.635C456.424 352.214 456.85 353.736 457.582 355.145C459.472 358.783 463.069 359.665 466.319 357.173C472.574 352.376 476.204 343.833 479.556 336.953C481.467 340.51 484.181 344.986 488.771 342.446C492.559 340.35 494.785 335.667 495.943 331.7C499.326 320.121 498.254 308.327 498.774 296.458Z" fill="black"/>
<path fill-rule="evenodd" clip-rule="evenodd" d="M493.029 226.908C492.597 225.859 492.408 226.03 493.202 225.013C493.821 225.623 493.326 226.126 493.029 226.908ZM512.173 290.414C510.958 286.961 511.708 283.21 510.971 279.668C510.632 278.043 510.097 276.466 509.905 274.812C509.819 274.077 509.166 270.772 509.611 270.252C508.24 269.422 508.236 268.808 507.919 267.181C508.408 266.663 508.346 266.221 507.735 265.854C507.336 265.371 506.936 264.887 506.536 264.404C508.284 265.259 507.25 263.071 507.071 261.811C506.93 260.814 506.835 259.775 506.503 258.82C506.094 257.646 505.185 257.052 507.076 257.052C506.454 256.344 505.523 255.614 505.213 254.747C504.768 253.5 505.503 251.851 504.594 250.75C504.087 250.135 501.473 249.895 501.932 248.567C502.165 247.891 503.224 248.396 503.552 247.922C504.84 246.059 501.037 245.288 500.851 244.495C500.609 243.468 501.983 243.239 502.067 242.278C502.149 241.338 500.688 239.793 500.302 238.952C499.775 239.08 499.198 239.913 498.596 239.515C498.482 239.44 498.653 236.186 498.516 235.754C498.382 235.329 498.106 234.202 498.008 233.994C497.618 233.166 496.502 232.763 496.325 231.784C496.219 231.201 498.506 230.317 495.883 230.289C496.825 228.629 495.099 227.62 494.471 226.201C493.663 224.376 493.187 222.406 492.357 220.572C491.551 218.789 490.649 217.098 489.486 215.522C488.433 214.095 487.978 212.722 487.137 211.215C486.968 211.082 486.8 210.95 486.632 210.818C485.93 210.919 485.705 210.6 485.957 209.859C485.42 209.064 485.021 208.215 484.548 207.385C483.998 206.42 483.256 205.633 482.687 204.695C481.933 203.451 481.71 202.048 480.858 200.8C479.81 199.265 478.632 197.911 477.66 196.318C476.443 194.323 475.096 193.083 473.564 191.537C472.835 190.801 472.748 188.963 471.854 187.918C470.882 186.78 469.921 186.472 469.247 184.978C468.37 183.034 467.083 182.106 465.83 180.426C464.796 179.04 464.291 177.448 463.153 176.107C462.173 174.956 461.062 173.904 460.016 172.812C458.697 171.433 457.722 169.758 456.349 168.447C456.547 168.636 455.153 167.532 455.223 167.567C454.915 167.41 453.92 167.283 454.065 167.369C451.992 166.15 449.394 161.69 446.274 164.053C444.633 165.296 445.42 167.576 446.566 168.814C447.058 169.346 449.615 171.967 450.167 170.862C450.763 171.707 452.6 175.793 454.128 174.622C453.972 176.018 454.781 175.555 455.315 176.499C455.666 177.122 455.495 177.427 455.751 178.399C456.456 181.072 459.144 183.682 460.575 186.012C464.139 191.812 468.069 197.313 471.636 203.119C475.035 208.653 478.842 213.904 482.103 219.513C485.812 225.89 490.433 231.91 493.227 238.785C493.321 239.017 494.097 239.382 494.29 239.729C494.626 240.332 494.554 241.375 494.77 242.058C495.52 244.426 496.735 246.757 498.12 248.718C499.335 250.439 499.423 252.777 500.259 254.796C501.438 257.641 502.683 260.456 503.828 263.316C505.611 267.766 506.818 272.032 508.05 276.678C508.848 279.689 509.483 282.698 509.738 285.808C509.972 288.667 510.029 291.646 511.087 294.353C511.809 293.238 512.659 291.795 512.173 290.414Z" fill="black"/>
<path fill-rule="evenodd" clip-rule="evenodd" d="M104.401 351.685C103.12 351.427 101.914 351.081 101.643 349.611C101.457 350.304 101.271 350.998 101.085 351.691C102.645 352.044 104.205 352.398 105.765 352.751C105.401 352.109 105.135 351.834 104.401 351.685Z" fill="black"/>
<path fill-rule="evenodd" clip-rule="evenodd" d="M107.838 110.3C107.935 109.885 108.061 109.479 108.216 109.082C108.321 109.469 108.838 110.305 108.537 110.67C108.154 111.132 107.767 110.87 107.838 110.3ZM114.118 98.3515C114.538 98.5369 115.448 98.5728 115.97 98.7294C114.616 99.8941 114.378 99.5515 112.627 99.4163C112.549 98.2379 113.028 97.8721 114.118 98.3515ZM102.383 127.524C102.564 127.529 102.746 127.533 102.929 127.537C102.94 127.024 102.927 126.512 102.888 126C104.734 126.403 103.689 123.177 103.109 122.509C104.91 122.569 105.787 116.868 106.358 115.769C106.864 114.794 107.438 114.417 107.808 113.227C108.132 112.186 108.482 111.249 108.95 110.265C110.023 108.001 111.432 105.944 111.172 103.306C112.081 105.286 112.881 103.309 113.458 102.362C114.388 100.837 116.656 98.8905 116.897 97.0788C117.11 95.4839 115.925 95.3995 116.625 93.9204C117.332 92.4231 117.913 92.5732 119.152 92.0943C119.977 91.7754 120.14 92.1627 120.722 91.1222C121.099 90.4486 120.966 89.9466 121.449 89.3944C121.648 89.5676 121.874 89.6393 122.128 89.6095C122.52 89.0926 122.777 88.5166 122.899 87.8816C123.218 87.0243 123.373 86.2371 123.854 85.4206C124.31 84.6471 125.12 82.5777 125.549 82.2048C126.005 81.8087 128.59 82.01 128.579 82.0244C129.646 80.6816 127.687 79.3437 130.4 79.6267C129.864 78.6293 131.746 77.3913 132.292 76.8363C133.656 75.451 133.765 74.81 134.053 73.0677C134.199 72.1795 133.245 72.2821 134.524 72.0797C135.053 71.9964 135.561 72.6727 135.942 72.5734C137.628 72.1365 135.865 72.2198 136.33 71.533C136.476 71.315 137.226 70.4356 137.219 70.445C137.183 70.4892 137.388 69.6798 137.558 69.4719C137.88 69.4443 138.197 69.388 138.509 69.303C138.667 68.9831 138.807 68.6554 138.929 68.3199C140.148 67.3026 141.973 66.8475 142.817 65.7298C143.363 65.0071 143.199 64.2992 143.904 63.5787C144.576 62.8924 145.464 63.3895 145.597 61.8393C145.766 59.867 143.648 58.9893 142.781 60.9797C140.431 58.085 130.608 68.7056 129.473 70.0931C124.543 76.1164 119.699 82.2886 115.655 88.9491C111.716 95.4392 108.482 102.268 105.955 109.426C104.736 112.877 103.994 116.313 103.25 119.883C103 121.079 101.133 126.406 101.91 127.599C102.067 127.574 102.225 127.548 102.383 127.524Z" fill="black"/>
<path fill-rule="evenodd" clip-rule="evenodd" d="M490.387 275.232C491.217 274.678 491.217 274.678 491.363 273.631C490.249 273.834 490.249 273.834 490.387 275.232Z" fill="black"/>
<path fill-rule="evenodd" clip-rule="evenodd" d="M81.1262 345.643C81.1372 345.642 81.1453 345.645 81.1516 345.651C81.1332 345.627 81.0663 345.557 81.1262 345.643Z" fill="black"/>
<path fill-rule="evenodd" clip-rule="evenodd" d="M80.5684 346.202C80.8249 346.757 81.237 346.895 81.8052 346.615C82.0292 346.935 79.8622 344.619 80.5684 346.202Z" fill="black"/>
<path fill-rule="evenodd" clip-rule="evenodd" d="M118.042 93.1466C116.742 95.6959 118.37 93.8417 118.287 94.6698C118.342 94.1258 118.567 93.3507 118.042 93.1466Z" fill="black"/>
<path fill-rule="evenodd" clip-rule="evenodd" d="M329.443 132.604C330.007 137.175 336.261 135.013 337.667 132.248C338.692 130.235 341.279 122.28 338.496 120.6C336.432 119.354 335.991 124.723 335.483 125.922C334.63 127.931 333.965 126.508 332.069 127.023C329.978 127.592 329.211 130.708 329.443 132.604Z" fill="black"/>
<path fill-rule="evenodd" clip-rule="evenodd" d="M322.611 124.237C324.846 124.733 327.037 124.477 328.625 122.712C329.504 121.734 330.675 119.795 329.091 118.849C327.656 117.992 326.029 119.999 324.518 119.584C322.463 119.02 323.521 116.816 322.816 115.361C320.226 116.852 318.78 123.386 322.611 124.237Z" fill="black"/>
<path fill-rule="evenodd" clip-rule="evenodd" d="M324.928 135.779C322.773 135.775 322.756 138.425 323.881 139.561C324.957 140.648 327.679 141.748 329.138 140.903C332.017 139.235 326.672 135.952 324.928 135.779Z" fill="black"/>
<path fill-rule="evenodd" clip-rule="evenodd" d="M199.547 241.172C200.007 241.395 201.363 242.545 201.935 242.026C201.128 241.213 200.321 240.401 199.515 239.588C199.069 240.077 198.763 240.791 199.547 241.172Z" fill="black"/>
<path fill-rule="evenodd" clip-rule="evenodd" d="M189.364 124.898C189.135 125.069 188.905 125.24 188.676 125.41C189.449 126.054 189.43 126.245 190.209 125.636C189.978 125.331 189.696 125.086 189.364 124.898Z" fill="black"/>
<path fill-rule="evenodd" clip-rule="evenodd" d="M335.411 276.565C334.978 275.787 334.16 277.222 333.607 277.455C332.706 277.834 331.968 275.826 332.226 278.233C330.191 277.301 328.955 279.439 327.643 280.552C325.789 282.126 323.521 282.979 322.284 285.213C328.106 286.575 334.503 281.556 338.844 278.259C339.552 277.721 343.093 275.005 340.693 274.742C339.712 274.635 336.14 277.873 335.411 276.565Z" fill="black"/>
<path fill-rule="evenodd" clip-rule="evenodd" d="M333.685 271.852C334.825 270.954 332.366 270.872 331.977 270.778C332.01 271.492 332.043 272.206 332.076 272.92C332.627 272.587 333.163 272.23 333.685 271.852Z" fill="black"/>
<path fill-rule="evenodd" clip-rule="evenodd" d="M329.4 274.848C329.741 274.635 330.692 273.971 330.045 273.475C329.461 273.847 329.043 274.454 328.952 275.146C329.101 275.047 329.251 274.948 329.4 274.848Z" fill="black"/>
<path fill-rule="evenodd" clip-rule="evenodd" d="M235.11 216.917C234.382 217.202 234.055 217.654 234.132 218.273C235.252 218.044 235.038 216.987 235.11 216.917Z" fill="black"/>
<path fill-rule="evenodd" clip-rule="evenodd" d="M463.594 46.5326C472.819 53.0852 483.4 57.5615 493.04 63.4628C495.453 64.9399 502.971 68.0067 502.898 70.7466C502.855 72.3485 500.596 74.3573 499.607 75.4675C497.913 77.3694 496.318 79.2912 494.754 81.3031C487.596 90.5164 480.855 99.8167 473.097 108.567C471.929 109.883 468.41 116.168 467.274 113.047C466.759 111.631 467.183 110.041 465.841 108.722C465.151 108.042 462.482 107.667 463.259 106.21C463.777 106.443 464.296 106.676 464.815 106.909C464.412 105.744 464.441 104.467 463.838 103.366C463.463 102.682 462.729 102.358 462.475 101.588C462.124 100.523 462.72 99.2863 462.62 98.189C462.522 97.0948 461.955 96.0605 461.616 95.0282C459.609 88.9087 458.888 82.7397 457.86 76.4258C456.844 70.1783 455.26 64.1264 454.638 57.8093C453.981 51.137 453.176 44.4782 452.101 37.8593C454.019 38.1283 455.493 40.2117 456.849 41.3895C458.98 43.2405 461.295 44.8991 463.594 46.5326ZM456.363 111.13C455.923 110.784 455.578 110.36 455.33 109.856C459.851 107.617 457.123 111.438 456.363 111.13ZM453.613 106.353C451.643 106.896 450.227 107.006 448.707 106.196C448.563 106.119 448.729 105.526 448.469 105.405C448.242 105.299 447.895 105.43 447.7 105.33C447.039 104.994 445.88 105.731 445.768 104.443C448.283 103.673 450.756 102.253 453.412 102.013C457.102 101.681 456.932 105.438 453.613 106.353ZM444.979 98.9259C442.29 99.5547 440.074 101.023 437.217 100.64C434.535 100.281 432.205 98.8899 430.089 97.2873C435.382 95.7889 440.932 95.5186 446.219 94.0692C447.941 93.5974 450.203 92.3533 452.059 92.8547C454.12 93.4121 454.25 95.3429 454.868 97.1C451.569 97.6934 448.245 98.1626 444.979 98.9259ZM428.16 91.4703C425.577 92.0875 422.936 93.4372 420.776 91.1079C420.427 90.7321 420.122 91.1073 420.163 89.9494C420.207 88.7285 421.315 87.942 422.268 87.5121C424.509 86.5016 427.651 87.1549 430.031 87.0062C433.827 86.77 437.692 85.9809 441.447 85.3733C444.047 84.9531 446.733 84.0198 449.391 84.2039C451.442 84.3461 453.918 86.0948 450.928 87.3705C448.204 88.5328 444.121 88.3545 441.171 88.8579C436.81 89.6019 432.464 90.4418 428.16 91.4703ZM425.637 79.3163C425.804 79.4869 425.971 79.6574 426.139 79.828C426.111 79.8215 427.129 78.9971 427.399 78.9732C428.709 78.8593 430.026 78.9494 431.338 78.8754C434.36 78.7049 437.406 78.1784 440.375 77.5985C442.793 77.1261 445.256 76.3119 447.745 76.5159C449.9 76.6923 450.126 77.1338 450.267 79.2133C444.767 79.2133 439.101 79.0975 433.695 80.2618C430.176 81.0193 426.298 83.2758 424.535 79.2082C424.902 79.2442 425.269 79.2803 425.637 79.3163ZM429.076 70.5123C430.439 71.5511 434.158 69.8236 435.792 69.6512C437.567 69.4632 439.238 69.2682 440.958 68.826C442.483 68.4334 447.53 66.473 448.7 68.3478C450.494 71.2203 443.231 71.7474 442.079 71.8896C437.25 72.4863 432.24 73.0153 427.541 74.282C428.052 73.0256 428.564 71.7693 429.076 70.5123ZM435.7 60.7558C436.052 62.0836 446.973 57.1908 447.172 60.7468C447.325 63.4751 436.367 64.8344 434.397 64.5949C434.858 63.3386 436.086 62.2136 435.7 60.7558ZM439.366 52.4101C439.599 49.732 439.958 49.7474 442.105 49.4951C443.743 49.3027 445.995 48.3424 445.569 51.2619C445.204 53.7616 439.133 55.1126 439.366 52.4101ZM443.27 43.1954C443.787 41.7576 444.95 43.693 444.974 44.4241C445.039 46.3697 443.564 45.9488 442.144 45.9488C442.539 45.04 442.915 44.121 443.27 43.1954ZM461.244 32.4027C460.954 32.0539 459.329 31.9206 458.866 31.7514C457.728 31.3343 457.889 30.4455 456.434 31.3221C456.361 31.2487 456.499 30.5896 456.42 30.5594C456.38 30.544 455.36 30.1591 455.029 29.9467C454.229 29.4344 453.508 28.933 452.773 28.29C451.991 27.6071 451.209 26.616 450.316 26.0721C449.94 25.843 449.632 25.518 449.178 25.4478C448.001 25.2663 448.338 26.0863 447.309 26.2491C446.675 26.3495 446.214 25.6094 445.385 25.9286C444.668 26.2041 444.253 27.2087 443.933 27.8067C442.773 29.9827 441.878 32.3248 440.742 34.524C434.932 45.7699 428.33 56.589 422.702 67.9398C419.992 73.4079 417.164 78.914 415.257 84.7252C413.881 88.9164 410.775 95.0391 413.447 99.2271C415.39 102.272 419.281 103.587 422.385 105.058C427.056 107.272 431.362 110.166 436.084 112.312C441.715 114.872 447.183 117.549 452.672 120.408C455.013 121.627 457.125 123.383 459.458 124.537C460.885 125.243 463.089 124.038 463.553 125.657C465.342 123.491 468.237 124.935 470.306 123.41C471.523 122.512 472.413 120.745 473.428 119.64C474.95 117.983 476.603 116.446 478.157 114.819C484.323 108.354 490.017 101.62 495.628 94.6761C500.986 88.045 507.247 81.78 511.773 74.5214C513.571 71.6399 513.897 68.6182 512.71 65.4349C511.844 63.1127 509.758 59.6063 506.777 61.1439C507.907 59.2671 503.547 57.2629 502.225 56.896C502.205 56.8909 501.944 58.3326 501.575 58.2965C501.707 58.3094 500.467 55.1023 499.923 54.691C498.306 53.4675 496.339 52.04 494.575 51.0327C492.957 50.1091 491.249 49.6515 489.682 48.6179C487.782 47.3654 486.038 45.88 484.131 44.6359C482.289 43.4349 480.237 42.0151 478.202 41.1893C476.437 40.473 474.853 40.3327 473.265 39.1587C471.3 37.7061 469.587 36.7207 467.322 35.7199C465.362 34.8542 462.646 34.098 461.244 32.4027Z" fill="black"/>
<path fill-rule="evenodd" clip-rule="evenodd" d="M111.734 260.109C112.095 259.263 112.454 258.416 112.814 257.571C113.26 259.046 113.385 259.779 111.734 260.109ZM112.214 264.018C111.433 264.158 111.741 261.709 111.741 261.282C113.089 262.046 111.973 262.961 112.214 264.018ZM110.997 256.953C111.662 256.56 112.328 256.167 112.993 255.774C112.066 257.491 112.43 256.418 112.812 257.565C112.113 257.766 111.434 257.532 110.997 256.953ZM107.053 270.374C104.558 279.425 96.6346 286.563 88.2657 290.261C83.4566 292.385 78.7286 292.916 73.5353 292.68C71.5324 292.588 69.1755 291.938 67.2478 292.059C65.7637 292.152 65.8306 292.216 64.6013 293.473C64.0575 292.471 64.4513 291.768 63.3604 291.185C61.9992 290.458 61.4341 291.305 60.7589 292.312C59.8753 291.396 59.5135 290.918 58.3686 290.374C58.4046 290.392 57.2725 290.348 57.3188 290.363C57.1142 290.3 55.8829 289.508 55.4974 289.364C53.9154 288.77 52.0863 288.526 50.6265 287.675C49.3496 286.932 48.2979 284.844 46.8369 286.448C46.8357 283.768 43.2256 282.657 41.5336 281.253C38.8896 279.059 36.7876 275.812 35.4695 272.67C34.0638 269.32 33.5946 266.109 32.9368 262.656C32.4773 260.244 29.4678 256.757 31.275 254.323C31.7056 255.344 31.5035 256.389 32.2186 257.314C32.8622 256.074 33.2162 254.687 33.5071 253.329C33.65 252.664 34.4776 250.713 34.3837 250.134C34.1925 248.948 32.7251 248.884 33.5386 247.43C35.2262 249.267 36.5881 246.042 35.3131 244.757C34.6836 245.467 34.4525 246.273 34.1623 247.152C32.503 243.803 37.0952 244.882 36.0905 241.858C37.7665 241.536 38.73 241.113 39.3672 239.457C40.0758 237.615 39.5545 237.213 41.1635 235.995C41.717 235.577 43.2823 234.975 43.5687 234.287C44.1228 232.956 42.7127 232.562 43.9478 231.315C44.3648 232.047 45.9906 233.496 46.8807 232.117C47.059 231.842 46.3105 231.647 46.855 231.014C47.6614 230.077 48.5638 229.158 49.9276 229.355C48.8476 226.655 55.7484 226.441 57.5158 225.804C59.287 225.166 60.7898 224.747 62.6679 224.599C64.544 224.451 64.6374 223.901 66.2258 222.772C66.3603 224.388 66.749 224.033 67.8979 224.318C68.174 223.844 68.4572 223.791 68.7468 224.158C69.0352 224.432 69.3879 224.561 69.8036 224.545C70.4344 224.578 71.1501 224.496 71.8111 224.509C73.3628 224.54 74.9635 224.41 76.4856 224.443C76.8782 224.377 77.2451 224.241 77.5888 224.033C77.7323 224.303 77.8765 224.574 78.0194 224.845C78.8258 224.946 78.8882 225.957 79.88 224.852C80.1735 226.257 81.0167 225.526 81.9074 225.907C82.7197 226.255 82.849 226.811 83.5988 227.199C84.0918 227.599 84.6202 227.652 85.1853 227.359C85.7227 227.757 86.2685 228.144 86.822 228.519C87.8422 229.095 89.0444 229.448 90.1193 229.903C90.8343 230.198 91.5449 230.505 92.2496 230.823C92.2709 231.673 92.6525 231.974 93.394 231.724C94.064 232.284 94.2526 232.262 94.9026 233.217C96.3752 235.38 97.6817 237.061 99.5418 238.994C107.626 247.4 110.11 259.283 107.053 270.374ZM109.534 234.632C105.884 229.744 100.718 224.147 96.0753 221.06C93.7222 219.495 90.4192 216.686 87.5416 215.858C86.8594 215.662 86.1533 215.649 85.4827 215.443C84.9646 215.284 84.6827 214.752 84.0918 214.656C83.6786 214.589 83.6329 215.514 83.194 215.429C82.2762 215.25 81.6944 214.34 81.0463 213.77C79.6541 216.169 78.8985 212.135 76.8544 214.847C74.4216 211.032 68.7063 211.866 64.8214 212.059C63.6694 212.115 63.1281 212.525 62.1067 212.829C61.156 213.112 61.0621 213.039 60.0239 213.031C57.4385 213.011 55.1434 213.336 52.7537 214.472C48.7388 216.379 45.0535 219.35 41.2401 221.649C36.9781 224.217 33.1364 227.487 29.8758 231.244C18.0887 244.828 14.9369 264.655 24.3356 280.403C39.2642 305.415 77.7722 308.088 99.5926 291.117C116.451 278.005 122.866 252.481 109.534 234.632Z" fill="black"/>
<path fill-rule="evenodd" clip-rule="evenodd" d="M286.202 4.64251C284.45 4.00148 282.282 2.74965 280.333 3.17636C278.263 3.62947 277.429 5.70319 275.924 6.94987C271.831 10.3398 269.447 5.28741 267.198 2.51859C265.075 -0.0957659 262.483 -0.730365 259.487 0.876093C258.293 1.51649 253.263 4.45072 254.14 6.33071C254.771 7.68359 257.256 6.46909 258.104 6.17367C259.944 5.53327 261.652 4.97269 263.534 5.90657C267.065 7.6572 267.98 12.4579 272.251 13.2064C276.668 13.9807 276.813 9.7779 279.965 8.1959C282.078 7.13587 283.549 9.01265 285.588 8.63871C287.53 8.28279 288.429 5.45604 286.202 4.64251Z" fill="black"/>
<path fill-rule="evenodd" clip-rule="evenodd" d="M250.547 21.5806C252.109 21.9198 253.128 18.8903 254.106 18.1218C255.728 16.8481 258.54 16.5913 260.191 17.8734C263.416 20.3757 262.305 25.7782 266.897 27.1864C271.001 28.4454 272.935 23.0397 276.39 21.6939C278.398 20.9112 280.603 20.3989 279.819 17.5908C279.278 15.649 277.683 15.1502 275.949 15.8962C272.97 17.177 271.958 22.3948 268.425 22.4881C264.77 22.5846 264.373 17.3154 262.804 15.0202C260.412 11.5222 255.494 10.6771 252.7 14.022C251.856 15.0312 247.572 20.9363 250.547 21.5806Z" fill="black"/>
</svg>
