<svg width="40" height="40" viewBox="0 0 40 40" fill="none" xmlns="http://www.w3.org/2000/svg">
<path d="M24 12H16C13.7909 12 12 13.7909 12 16V24C12 26.2091 13.7909 28 16 28H24C26.2091 28 28 26.2091 28 24V16C28 13.7909 26.2091 12 24 12Z" stroke="#079911" stroke-linecap="round" stroke-linejoin="round"/>
<path d="M22.9675 19.56C23.0601 20.1841 22.9535 20.8216 22.6629 21.3817C22.3722 21.9418 21.9124 22.396 21.3488 22.6797C20.7851 22.9634 20.1464 23.0621 19.5234 22.9619C18.9004 22.8616 18.3249 22.5675 17.8787 22.1213C17.4325 21.6751 17.1384 21.0996 17.0381 20.4766C16.9379 19.8536 17.0366 19.2149 17.3203 18.6512C17.604 18.0876 18.0582 17.6278 18.6183 17.3371C19.1784 17.0465 19.8159 16.9399 20.4401 17.0325C21.0767 17.1269 21.6662 17.4235 22.1213 17.8787C22.5765 18.3338 22.8731 18.9233 22.9675 19.56Z" stroke="#079911" stroke-linecap="round" stroke-linejoin="round"/>
<circle cx="20" cy="20" r="19.5" stroke="#079911"/>
</svg>
