<svg width="95" height="29" viewBox="0 0 95 29" fill="none" xmlns="http://www.w3.org/2000/svg">
<path d="M7.512 23.288C12.312 23.288 14.64 20.888 14.64 18.08C14.64 11.912 4.872 14.048 4.872 10.952C4.872 9.896 5.76 9.032 8.064 9.032C9.552 9.032 11.16 9.464 12.72 10.352L13.92 7.4C12.36 6.416 10.2 5.912 8.088 5.912C3.312 5.912 1.008 8.288 1.008 11.144C1.008 17.384 10.776 15.224 10.776 18.368C10.776 19.4 9.84 20.168 7.536 20.168C5.52 20.168 3.408 19.448 1.992 18.416L0.672 21.344C2.16 22.496 4.848 23.288 7.512 23.288ZM17.2967 23H21.1847V6.2H17.2967V23ZM36.7397 6.2V16.4L28.3877 6.2H25.1717V23H29.0117V12.8L37.3877 23H40.5797V6.2H36.7397ZM57.1065 23H61.1865L53.6745 6.2H49.8345L42.3465 23H46.3305L47.8185 19.4H55.6185L57.1065 23ZM49.0665 16.448L51.7305 10.016L54.3945 16.448H49.0665ZM83.6874 6.2L79.7754 18.104L75.9354 6.2H72.3354L68.3754 18.008L64.5834 6.2H60.5514L66.0714 23H70.2234L74.0394 11.624L77.7354 23H81.9114L87.4074 6.2H83.6874Z" fill="black"/>
<circle cx="92" cy="20" r="3" fill="#079911"/>
</svg>
