<svg width="80" height="80" viewBox="0 0 80 80" fill="none" xmlns="http://www.w3.org/2000/svg">
<circle cx="40" cy="40" r="40" fill="#EAF5EB"/>
<path d="M40.5 23.4583V55.5416" stroke="#079911" stroke-width="2" stroke-linecap="round" stroke-linejoin="round"/>
<path d="M47.7917 29.2916H36.8542C35.5005 29.2916 34.2022 29.8294 33.245 30.7866C32.2878 31.7438 31.75 33.0421 31.75 34.3958C31.75 35.7495 32.2878 37.0478 33.245 38.005C34.2022 38.9622 35.5005 39.5 36.8542 39.5H44.1458C45.4995 39.5 46.7978 40.0377 47.755 40.9949C48.7122 41.9522 49.25 43.2504 49.25 44.6041C49.25 45.9578 48.7122 47.2561 47.755 48.2133C46.7978 49.1705 45.4995 49.7083 44.1458 49.7083H31.75" stroke="#079911" stroke-width="2" stroke-linecap="round" stroke-linejoin="round"/>
</svg>
