<svg width="106" height="129" viewBox="0 0 106 129" fill="none" xmlns="http://www.w3.org/2000/svg">
<circle cx="59.2598" cy="83.4646" r="43.4016" fill="#EAF5EB"/>
<mask id="mask0_39_131" style="mask-type:alpha" maskUnits="userSpaceOnUse" x="0" y="0" width="106" height="129">
<path d="M98.242 103.68C81.0391 143.604 41.6018 126.625 24.0334 113.145L0 81.3094L4.21639 40.0094L38.7908 0L90.2308 18.499C100.069 30.258 115.445 63.7569 98.242 103.68Z" fill="#C4C4C4"/>
</mask>
<g mask="url(#mask0_39_131)">
<path fill-rule="evenodd" clip-rule="evenodd" d="M199.484 109.079C184.824 107.913 170.839 113.375 159.122 121.89C144.022 132.864 131.223 148.557 122.559 165.094C121.638 165.804 120.73 166.532 119.828 167.266C115.007 171.194 110.296 175.343 106.12 179.961C103.789 182.538 97.6748 188.806 100.329 192.76C100.893 193.599 101.818 194.081 102.744 194.413C105.342 195.344 108.051 195.815 110.613 196.903C113.776 198.246 117.056 200.127 119.082 202.994C119.658 203.81 119.809 204.772 120.584 205.132C121.405 205.513 122.954 205.364 123.852 205.452C125.657 205.63 127.463 205.807 129.268 205.983C133.51 206.399 137.943 206.445 142.092 207.469L161.18 212.182C165.084 213.146 169.571 213.677 173.274 215.262C178.799 217.626 184.07 221.088 189.356 223.941C191.912 225.32 194.469 226.7 197.025 228.08C198.273 228.754 199.128 228.763 200.591 228.875L211.148 229.687C212.851 229.819 213.669 230.504 213.892 228.8L216.346 210.063L217.643 200.155C217.721 199.566 217.698 196.647 218.181 196.295C218.484 196.074 220.261 196.55 220.59 196.59L225.382 197.177C228.833 197.599 232.284 198.022 235.735 198.444C236.015 198.479 237.567 198.461 237.741 198.69C237.945 198.959 237.557 200.499 237.522 200.831C237.156 204.31 236.79 207.789 236.424 211.268C236.381 211.671 235.891 213.542 236.149 213.874C236.329 214.103 237.629 214.131 237.893 214.174C241.222 214.718 244.551 215.261 247.88 215.805C250.264 216.194 253.38 216.175 255.634 217.071C256.929 217.586 258.209 218.902 259.327 219.725L275.564 231.673C278.027 233.484 281.346 233.023 284.345 233.251L318.939 235.887C318.91 234.81 318.881 233.732 318.853 232.655C318.7 226.948 318.549 221.242 318.396 215.535L318.197 208.072C318.185 207.599 318.373 206.217 318.064 205.868C317.654 205.405 315.82 205.204 315.251 205.035C313.341 204.47 311.432 203.905 309.523 203.34C303.922 201.682 298.321 200.024 292.721 198.366C287.185 196.728 281.65 195.089 276.115 193.451C274.22 192.89 272.327 192.33 270.433 191.769C269.995 191.64 268.467 191.467 268.163 191.097C267.78 190.631 267.951 188.643 267.89 188.052C267.59 185.169 267.161 182.298 266.639 179.447C262.876 158.882 254.081 137.993 237.772 124.274C226.992 115.205 213.469 110.191 199.484 109.079ZM196.898 150.319C198.349 148.615 200.787 145.835 203.351 146.296C205.435 146.671 206.57 149.255 207.296 150.972C210.216 157.874 211.121 165.785 212.029 173.161C212.599 177.789 213.057 182.438 213.35 187.092C202.951 186.292 192.552 185.492 182.153 184.692C182.644 181.379 183.037 178.034 183.628 174.737C183.924 173.084 184.744 171.596 185.444 170.069C188.576 163.239 191.995 156.075 196.898 150.319Z" fill="#079911"/>
<path fill-rule="evenodd" clip-rule="evenodd" d="M52.5435 15.7708L52.2893 15.7752C45.3882 15.9588 39.3025 20.3995 34.5824 25.0992C32.2484 27.423 30.1201 30.1563 29.1184 33.3369C27.9619 37.011 28.3424 41.0524 29.2224 44.7399C31.1664 52.8889 33.5423 61.0799 36.2141 69.0218C37.5288 72.9286 39.4351 76.7592 40.4273 80.7578C41.2453 84.0522 37.8007 86.4517 37.6688 89.8371C37.5358 93.2523 39.8337 96.4607 42.9911 97.6812C44.336 98.2011 45.963 97.7668 47.2028 98.2995C48.3366 98.7864 48.7336 100.224 48.9514 101.327C49.248 102.831 49.1946 104.335 49.1103 105.853C49.0585 106.781 49.2899 108.297 48.8368 109.125C48.5257 109.694 47.9588 109.88 47.4703 110.269C46.8038 110.8 46.3596 111.461 45.7751 112.072C44.8115 113.079 43.8845 113.625 43.6228 115.095C43.4835 114.761 43.3442 114.427 43.2054 114.093C42.487 115.407 41.9546 116.037 42.6376 117.285C40.5187 117.077 39.2632 120.921 38.7077 122.379C37.6904 125.046 36.9917 127.819 35.972 130.488C34.5746 134.148 32.7385 137.76 31.8467 141.589C31.0977 144.808 30.5049 148.114 29.8392 151.355C29.4641 153.179 29.1373 155.033 28.4511 156.773C28.1843 157.449 27.6892 157.903 27.3824 158.506C26.963 159.33 27.127 159.765 27.107 160.668C27.0717 162.277 26.0564 163.322 25.737 164.886C25.3961 166.556 25.1175 168.245 24.7734 169.918C24.0802 173.29 22.7961 176.656 22.4869 180.071C22.128 184.036 21.3578 187.953 20.9706 191.919C20.6316 195.385 21.2076 199.106 20.4837 202.459C19.8419 205.435 20.6375 208.156 20.9208 211.11C20.9926 211.861 19.8372 216.327 21.6941 215.469C21.3453 216.522 20.8564 217.024 20.8302 218.179C20.8058 219.259 21.0844 220.37 21.3119 221.418C21.7513 223.442 22.044 225.648 22.9048 227.545C23.8781 229.69 25.3615 229.947 27.3781 230.683C28.7434 231.181 31.2017 232.959 32.2775 231.057C32.9189 233.01 34.1712 231.66 35.575 231.551C35.5656 231.552 36.3784 231.852 36.5307 231.873C37.0242 231.939 37.6076 231.707 38.0988 231.666C39.3233 231.564 40.5246 231.728 41.7224 231.976C44.4824 232.548 47.1526 233.339 49.9534 233.737C55.4244 234.516 60.7859 234.148 66.2647 234.489C76.9871 235.155 87.8867 234.596 98.6172 234.307C99.7691 234.276 101.01 234.437 102.147 234.26C103.372 234.069 103.639 233.49 104.594 232.909C106.181 231.945 107.942 232.883 109.588 233.235C114.421 234.269 119.469 234.346 124.341 235.347C134.239 237.379 143.359 241.391 152.841 244.775C156.951 246.242 161.776 248.617 166.208 248.722C171.58 248.837 170.311 243.546 169.324 240.145C172.428 240.968 177.302 244.733 180.456 242.548C184.216 239.945 179.432 235.617 179.207 232.557C185.926 233.951 193.549 237.01 200.369 234.524C201.681 234.045 202.823 233.034 204.232 232.87C205.697 232.699 207.245 233.216 208.725 233.207C212.099 233.185 215.374 232.737 218.746 233.152C226.264 234.078 233.676 234.585 241.255 234.785C248.885 234.985 256.515 235.437 264.149 235.419C268.023 235.409 271.97 234.949 275.836 235.155C277.355 235.236 280.622 236.339 281.689 234.796C282.76 236.08 283.67 235.222 285.044 235.364C284.789 235.338 285.76 235.899 285.905 235.953C286.628 236.222 287.303 236.14 288.057 236.132C290.066 236.112 291.942 237.052 293.941 236.961C294.446 236.938 294.828 236.791 295.257 236.618C295.359 236.576 295.334 236.139 295.497 236.103C296.475 235.884 296.222 236.483 296.843 236.785C297.531 237.119 298.549 236.578 298.157 237.607C300.025 237.525 301.794 238.154 303.492 237.047C302.689 238.822 305.495 237.347 306.228 237.318C307.447 237.269 308.514 237.878 309.729 238.019C311.187 238.187 312.651 237.511 314.077 237.924C315.195 238.246 315.577 239.024 316.74 238.626C317.728 238.289 318.345 237.556 318.824 236.754C319.486 235.648 319.571 235.155 321.166 235.135C322.349 235.12 323.538 235.375 324.732 235.373C326.101 235.37 327.604 235.225 328.854 235.875C330.199 236.576 330.99 237.643 332.482 238.192C339.193 240.659 346.56 240.006 353.563 239.964C356.517 239.946 358.685 240.218 359.514 236.848C360.215 234.001 360.496 231.024 361.164 228.153C361.984 224.636 362.884 221.373 364.702 218.228C366.465 215.178 367.948 212.028 369.483 208.86C372.676 202.272 377.12 196.667 382.075 191.314C383.958 189.279 386.115 187.013 386.205 184.084C386.267 181.555 385.153 178.935 383.691 176.92C382.387 175.121 380.237 173.092 377.805 173.512C376.34 173.764 375.38 174.946 374.287 175.832C373.092 176.8 371.791 177.46 370.351 177.988C366.994 179.22 364.178 180.567 361.27 182.693C358.328 184.844 355.578 187.253 353.034 189.862C348.15 194.87 343.145 200.072 340.339 206.557C339.233 209.112 338.526 211.576 337.772 214.225C337.032 216.826 335.015 216.109 332.747 215.735C329.984 215.279 327.207 215.035 324.425 214.746C323.377 214.637 321.901 214.605 321.271 213.616C320.575 212.525 321.372 211.111 321.435 209.979C321.469 209.375 321.268 208.929 321.218 208.339C321.16 207.669 321.358 207.057 321.359 206.389C321.36 204.953 320.688 203.674 319.571 202.804C317.481 201.176 314.433 200.205 311.958 199.31C308.58 198.086 304.96 197.485 301.481 196.612C297.563 195.629 293.623 194.743 289.684 193.85C285.814 192.973 281.95 192.071 278.039 191.395C275.744 190.999 273.255 191.144 271.031 190.419C268.667 189.65 269.059 187.271 269.066 185.164C269.078 181.684 268.647 178.102 268.137 174.661C267.053 167.348 264.47 160.19 262.122 153.201C259.86 146.469 257.057 140.008 252.431 134.545C247.927 129.227 242.4 124.415 236.666 120.463C230.692 116.345 224.044 113.37 217.807 109.694C219.17 108.651 220.796 107.762 221.579 106.157C222.463 104.345 222.089 102.178 222.051 100.241C222.009 98.0547 221.942 96.1359 221.161 94.0534C220.734 92.9129 219.082 90.7496 219.335 89.5095C219.76 87.427 224.315 85.9059 225.993 85.0491C228.624 83.705 231.26 82.3397 233.684 80.6429C236.011 79.0151 238.2 77.0558 239.61 74.5571C240.01 73.8482 240.339 73.1035 240.594 72.3307C240.879 71.4683 240.68 71.1745 241.542 71.1113C242.918 71.0101 244.981 72.3911 246.14 73.0011C252.117 76.1464 258.682 80.3792 265.734 80.0983C268.293 79.9967 271.169 79.1928 272.074 76.5242C273.265 73.0109 270.778 69.3815 268.596 66.844C272.852 67.5129 280.701 69.6036 284.06 65.8059C286.298 63.2754 284.61 59.2587 282.733 57.0644C280.253 54.1659 276.718 52.4012 273.452 50.5569C277.459 49.0292 281.896 48.0523 285.419 45.4959C288.79 43.0513 288.373 39.2956 285.711 36.4119C282.865 33.3294 277.889 31.7507 273.975 30.6063C269.175 29.2025 264.406 29.3151 259.459 29.4093C250.58 29.578 242.954 32.8508 235.672 37.7988C231.822 40.4152 228.027 43.2388 224.612 46.4077C221.409 49.3795 217.992 52.1431 214.836 55.1471C211.778 58.0578 209.373 61.6641 206.146 64.3833C203.401 66.6953 200.393 69.9724 196.906 70.9987C193.21 72.087 189.882 73.887 186.154 74.9585C181.924 76.1735 178.291 78.2054 174.372 80.1438C157.924 88.2791 140.266 93.5736 122.925 99.4141C114.056 102.401 105.127 104.507 96.0718 106.788C91.5244 107.934 87.3017 108.545 82.6091 108.338C81.5271 108.291 80.4937 108.262 79.4265 108.413C78.6443 108.522 78.0495 108.818 77.3499 108.351C76.3448 107.679 75.967 105.931 75.3679 104.935C78.7074 103.9 81.9767 102.78 83.5005 99.3577C84.4605 97.201 84.9587 94.6858 85.3797 92.3719C85.6057 91.1266 85.6108 89.87 85.8038 88.624C85.9097 87.9358 86.2369 87.2167 86.2119 86.5137C86.2868 86.9048 88.7753 85.6184 89.1362 85.3794C90.5286 84.4571 90.782 82.5978 90.7707 81.0285C90.7573 79.256 90.2222 77.3077 89.0186 75.9636C88.4489 75.3272 87.7709 74.8502 86.9427 74.6105C86.355 74.4402 85.5798 74.663 85.0615 74.4916C82.7625 73.7316 82.5051 68.0425 82.1791 65.9714C81.4604 61.4079 80.7444 57.0511 79.1931 52.6766C76.3648 44.7014 72.7248 36.9506 68.3892 29.6894C64.6743 23.4674 60.9629 15.8595 52.795 15.7708H52.5435ZM123.153 207.352C126.459 207.924 129.627 209.093 132.82 210.085C135.803 211.011 138.826 211.6 141.885 212.202C147.975 213.4 154.198 214.497 160.199 216.059C161.889 216.499 162.778 217.491 164.252 218.181C165.345 218.693 166.371 218.175 167.508 218.131C169.983 218.037 172.729 218.844 175.11 219.446C180.73 220.866 185.717 223.332 190.802 226.058C191.257 226.302 194.334 227.71 194.188 228.293C194.07 228.769 190.158 227.491 189.536 227.396C186.387 226.916 183.31 225.923 180.184 225.307C177.617 224.8 175.022 224.457 172.467 223.895C169.623 223.27 163.566 221.095 163.325 225.791C163.065 230.867 168.67 232.428 172.039 234.796C171.664 235.444 166.258 233.308 165.588 233.092C163.29 232.351 161.157 231.015 158.817 230.446C154.745 229.456 155.239 233.953 157.486 235.954C159.984 238.176 164.114 238.848 165.497 242.267C163.681 242.923 161.307 241.692 159.639 241.081C157.448 240.278 155.249 239.487 153.045 238.721C148.097 237.002 143.398 234.633 138.424 232.995C128.219 229.635 117.432 228.672 106.763 228.075C107.714 224.387 108.754 220.721 109.608 217.009C109.974 215.421 110.308 213.825 110.585 212.218C110.778 211.101 110.614 208.427 111.384 207.546C112.321 206.473 114.762 207.98 116.09 207.952C117.392 207.924 118.341 207.252 119.544 207.04C120.685 206.839 122.036 207.159 123.153 207.352ZM314.905 228.697C314.905 230.46 315.211 232.598 312.892 232.804C311.017 232.97 307.348 233.185 305.852 231.851C307.286 231.152 308.915 231.03 310.438 230.628C312.024 230.207 313.489 229.518 314.905 228.697ZM276.635 196.579C277.341 196.584 278.531 197.368 279.174 197.587C280.351 197.987 281.548 198.325 282.75 198.643C286.362 199.6 291.012 199.749 292.67 203.626C293.498 205.561 294.072 210.536 296.949 210.518C299.505 210.502 301.037 206.812 302.861 205.499C304.746 204.142 307.735 205.065 309.768 205.655C311.834 206.253 315.04 207.021 314.808 209.639C314.641 211.522 314.301 213.235 314.317 215.158C314.337 217.605 314.544 220.048 314.544 222.496C313.094 220.509 311.828 216.514 309.259 215.714C306.663 214.907 305.194 219.443 304.519 221.181C303.682 223.335 302.63 225.778 302.566 228.112C302.546 228.845 302.991 230.858 302.482 231.461C302.029 231.996 300.289 231.608 299.727 231.549C296.248 231.187 292.786 230.737 289.296 230.434C287.503 230.279 287.015 229.886 287.191 227.958C287.328 226.443 287.371 225 287.181 223.48C286.334 216.692 282.154 210.483 275.087 209.305C270.828 208.594 265.854 209.113 261.603 209.796C259.964 210.059 258.185 210.852 256.52 210.783C255.29 210.732 255.686 210.662 255.434 209.505C255.258 208.695 254.881 208.005 254.265 207.444C253.779 207 253.161 207.251 252.703 206.671C252.371 206.252 252.421 205.681 252.264 205.197C251.959 204.257 251.406 202.988 250.307 202.75C248.537 202.368 246.656 204.737 245.762 205.96C244.839 207.223 244.56 210.996 243.076 211.49C241.364 212.059 239.326 209.815 238.969 208.401C238.489 206.499 239.094 204.441 239.383 202.557C239.404 202.422 239.488 201.171 239.581 201.089C239.831 200.869 241.714 200.931 242.047 200.914C243.688 200.836 245.331 200.832 246.973 200.828C253.409 200.812 259.715 200.179 266.109 199.504C265.18 201.018 263.59 203.504 265.222 205.102C266.432 206.286 268.615 205.692 270.134 205.936C272.28 206.281 275.898 208.317 277.943 206.829C280.825 204.73 277.565 201.123 276.494 199.14C276.265 198.714 275.415 197.218 275.776 196.719C276.087 196.288 276.179 196.575 276.635 196.579ZM324.635 219.906C326.106 220.355 327.589 220.786 329.092 221.119C330.856 221.509 333.59 221.13 334.448 223.071C335.101 224.546 334.777 226.926 334.247 228.395C333.639 230.077 332.214 230.51 330.532 230.638C328.569 230.788 326.58 230.472 324.64 230.203C323.875 230.097 323.06 229.906 322.283 229.905C321.822 229.904 320.891 230.326 320.481 229.981C319.95 229.534 320.3 226.996 320.342 226.387C320.445 224.88 320.731 223.393 320.809 221.884C320.865 220.8 320.456 219.327 321.726 219.096C322.518 218.952 323.947 219.696 324.635 219.906ZM205.799 190.075C206.898 190.265 207.992 190.401 209.109 190.384C209.797 190.374 210.621 190.14 211.257 190.517C212.431 191.214 212.256 193.051 212.216 194.197C212.167 195.587 212.046 196.998 211.897 198.382C211.756 199.705 211.03 201.883 212.055 203.017C212.778 202.225 213.135 199.638 214.53 199.733C216.065 199.836 215.355 202.288 215.219 203.166C214.467 208.02 213.61 212.876 212.938 217.743C212.618 220.057 212.206 222.355 211.992 224.68C211.849 226.241 211.8 227.646 210.056 227.969C208.44 228.269 206.623 227.757 204.989 227.718C203.307 227.678 202.343 227.563 201.375 226.043C203.693 225.535 207.364 225.846 208.67 223.395C210.192 220.535 206.981 217.962 205.401 216.007C204.188 214.506 201.709 209.516 199.458 212.48C198.647 213.547 198.501 215.176 198.092 216.417C197.426 218.434 196.613 220.422 195.815 222.389C188.514 218.62 181.022 215.223 173.06 213.107C175.09 209.676 177.603 206.586 179.122 202.868C180.825 198.7 182.235 194.418 183.976 190.264C186.736 191.875 189.687 187.97 192.435 187.812C196.777 187.564 201.542 189.337 205.799 190.075ZM249.046 218.172C250.559 219.073 252.786 220.827 253.149 222.639C253.777 225.773 250.201 223.678 249.097 222.992C246.785 221.557 244.521 221.098 241.867 221.983C238.463 223.117 235.326 225.032 231.673 223.577C229.855 222.853 225.823 221.305 226.911 218.529C227.661 216.615 229.856 218.257 231.017 218.943C234.054 220.739 236.569 219.601 239.604 218.305C242.64 217.007 246.058 216.392 249.046 218.172ZM356.839 202.091C358.054 203.814 355.584 203.442 354.5 203.61C352.232 203.96 349.897 205.768 350.522 208.327C351.131 210.822 353.518 212.381 353.973 215C354.364 217.249 353.987 220.095 351.816 221.33C350.596 222.023 347.93 222.309 346.702 221.512C344.828 220.296 347.156 218.485 348.396 217.883C350.04 217.084 351.367 216.652 350.553 214.555C349.562 211.998 347.637 210.036 347.808 207.11C347.949 204.686 349.228 201.932 351.559 200.925C353.228 200.204 355.701 200.478 356.839 202.091ZM190.937 194.661C188.837 194.571 188.753 197.109 188.859 198.358C189.004 200.065 188.694 201.884 188.658 203.597C188.611 205.865 188.136 213.292 192.147 212.189C194.726 211.48 196.848 209.008 198.922 207.42C200.829 205.958 205.678 204.205 205.992 201.433C206.347 198.303 202.524 197.717 200.333 197.22C197.205 196.51 194.169 194.8 190.937 194.661ZM201.17 112.159C204.501 112.48 207.813 112.975 210.983 114.081C213.128 114.829 216.422 115.366 217.943 117.203C219.257 118.792 218.687 121.056 219.115 122.933C219.692 125.472 221.445 125.125 223.145 123.54C225.18 121.641 225.768 120.267 228.601 122.048C234.464 125.735 239.113 131.179 243.764 136.222C240.167 137.311 233.112 137.575 231.917 142.068C231.265 144.525 233.233 146.312 235.001 147.652C237.285 149.384 239.669 150.985 241.903 152.786C243.987 154.466 248.661 161.156 249.984 155.274C250.802 151.633 249.268 147.87 249.919 144.273C252.747 148.833 255.619 153.381 258.212 158.081C260.418 162.081 261.702 166.36 262.76 170.784C261.11 170.891 259.392 170.054 257.761 170.549C256.19 171.025 255.455 172.511 255.345 174.05C255.157 176.661 256.362 179.317 256.969 181.824C257.385 183.546 257.863 187.453 259.96 188.013C262.35 188.651 263.85 184.975 264.916 183.481C265.93 185.04 265.913 187.322 266.062 189.109C266.163 190.339 266.849 192.637 265.466 193.316C264.173 193.952 261.444 193.155 260.061 193.097C257.493 192.988 254.876 192.78 252.308 192.855C249.881 192.927 246.311 194.224 245.363 191.242C244.718 189.212 244.149 181.915 240.707 185.874C239.178 187.632 237.982 189.636 236.505 191.427C235.015 193.234 233.66 193.353 231.435 193.261C227.03 193.081 222.728 193.926 218.418 194.61C214.636 195.209 215.132 191.999 215.189 189.141C215.274 184.711 214.396 180.079 213.917 175.673C212.778 165.198 210.439 154.848 206.842 144.941C209.851 143.916 215.246 148.051 217.471 144.911C219.3 142.33 216.95 138.774 215.994 136.361C214.801 133.351 214.197 130.206 212.251 127.538C211.637 126.696 210.763 125.567 209.575 125.851C208.555 126.094 208.148 127.395 207.574 128.129C205.752 130.459 203.425 132.206 201.805 134.747C200.815 136.302 200.044 137.963 199.723 139.788C199.634 140.29 199.746 141.317 199.393 141.738C198.298 143.042 194.848 143.023 193.315 143.823C188.081 146.555 186.241 154.507 184.208 159.521C183.636 160.933 183.068 162.348 182.763 163.845C182.56 164.845 182.57 166.117 182.027 167.014C180.843 168.973 177.163 167.224 175.357 166.921C172.33 166.412 169.318 165.927 166.279 165.5C164.425 165.24 161.727 164.568 160.314 166.211C158.849 167.914 159.692 170.596 160.427 172.423C161.627 175.406 163.16 178.255 164.427 181.21C165.437 183.567 165.94 186.603 167.881 188.419C169.562 189.993 172.345 190.445 174.325 189.164C175.455 188.433 178.356 181.362 179.121 181.678C177.739 187.139 175.713 192.708 173.573 197.92C172.916 199.521 171.787 202.786 170.126 203.654C168.75 204.374 165.626 203.014 164.217 202.75C162.882 202.5 160.245 201.415 158.968 202.21C157.421 203.173 157.232 205.743 157.058 207.338C156.929 208.521 157.163 209.404 155.724 209.345C154.711 209.304 153.687 208.809 152.714 208.561C150.456 207.984 148.112 207.603 145.812 207.232C140.494 206.373 135.178 205.517 129.863 204.636C125.293 203.879 120.783 203.884 116.653 201.716C114.56 200.618 112.161 200.282 109.932 199.547C107.722 198.819 105.518 198.346 103.205 198.072C98.148 197.474 93.2274 196.889 88.2299 195.864C85.4951 195.304 82.7653 194.716 80.0449 194.088C77.6234 193.529 75.2824 192.641 72.8727 192.093C70.8679 191.637 69.2213 191.979 68.3625 189.704C67.7466 188.072 67.8898 186.244 67.7317 184.536C67.0086 176.733 69.7412 168.885 70.3002 161.125C70.4815 158.612 70.5372 156.091 70.7259 153.58C70.8122 152.429 70.76 149.078 72.1026 148.458C72.2246 149.379 72.1297 150.927 73.1752 151.383C72.6644 151.16 73.3349 153.879 73.371 154.152C73.5138 155.237 73.1576 156.398 73.3455 157.463C73.1964 157.838 73.2615 158.12 73.5401 158.309C73.7299 158.463 73.8684 158.658 73.9548 158.893C73.9681 159.652 73.7456 159.205 73.735 159.467C73.6299 162.078 74.0713 164.785 73.8826 167.46C73.6829 170.288 73.0516 173.061 72.5722 175.85C72.1418 178.353 71.6781 180.861 71.3191 183.376C71.0672 185.14 70.8805 187.166 71.8299 188.772C73.6327 191.822 78.8518 191.49 81.8915 191.989C86.9439 192.818 92.0034 193.566 97.0742 194.271C99.0209 194.541 100.991 195.159 102.961 195.19C105.065 195.223 106.191 194.373 107.517 192.82C110.19 189.692 111.913 186.139 114.139 182.737C115.39 180.825 116.43 180.321 118.534 179.738C120.489 179.196 122.058 177.77 123.649 176.583C126.99 174.091 131.304 171.381 133.497 167.711C135.804 163.849 132.553 162.567 129.44 161.513C130.197 159.5 131.683 157.883 132.907 156.151C134.299 154.181 135.56 152.135 137.059 150.24C140.112 146.377 143.163 142.534 146.126 138.598C148.66 135.235 151.22 132.049 154.453 129.324C157.7 126.587 161.316 124.344 164.882 122.053C166.744 120.856 170.014 117.798 172.369 118.11C174.653 118.414 175.556 122.668 176.126 124.456C176.781 126.507 177.012 129.368 178.537 130.983C180.779 133.356 183.107 129.617 184.177 127.894C186.136 124.738 188.14 121.61 190.096 118.451C190.988 117.011 192.275 115.64 192.805 114.008C192.811 113.988 193.059 112.584 192.809 112.78L192.792 112.796L192.809 112.777C193.368 112.223 195.435 112.108 196.207 112.041L196.278 112.035C197.904 111.881 199.549 112.002 201.17 112.159ZM223.005 200.662C224.877 200.65 226.745 200.868 228.608 201.021C230.246 201.154 231.746 200.904 233.381 200.806C235.403 200.684 236.403 200.896 235.937 202.984C235.599 204.504 235.192 206.528 233.631 207.17C231.524 208.038 228.685 207.921 226.439 208.25C224.791 208.491 223.146 208.709 221.505 208.984C220.415 209.166 219.855 209.357 219.344 208.122C218.918 207.087 219.193 205.703 219.338 204.634C219.45 203.813 219.383 202.37 219.771 201.64C220.35 200.55 221.866 200.669 223.005 200.662ZM135.706 179.837C132.955 182.352 131.104 185.567 129.026 188.616C127.758 190.478 125.277 193.446 127.079 195.703C128.614 197.627 132.183 197.187 134.331 197.279C137.706 197.425 140.462 198.95 143.674 199.737C151.763 201.718 145.045 188.122 143.924 185.284C143.138 183.294 142.327 181.312 141.376 179.393C140.947 178.528 140.092 176.006 139.025 175.675C137.48 175.196 136.685 178.943 135.706 179.837ZM205.203 151.251C206.489 153.709 206.698 157.11 207.307 159.794C209.171 168.001 210.26 176.359 211.117 184.723C206.856 183.034 202.359 182.917 197.861 182.503C194.602 182.203 191.609 181.86 188.349 181.999C187.794 182.023 186.196 182.305 185.738 181.833C185.123 181.199 185.868 179.43 186.05 178.763C187.038 175.14 187.472 171.397 188.595 167.797C189.739 164.126 191.131 160.459 192.612 156.91C193.695 154.314 195.182 151.782 197.806 150.509C200.104 149.395 203.777 148.525 205.203 151.251ZM222.749 167.223C220.993 169.87 218.77 172.184 217.056 174.855C215.84 176.75 214.417 180.254 217.337 181.459C218.361 181.881 219.571 181.698 220.645 181.717C222.306 181.746 223.95 181.889 225.614 181.849C227.187 181.811 228.745 181.621 230.315 181.539C231.304 181.487 232.546 181.563 233.418 180.995C235.753 179.472 234.064 176.361 233.312 174.371C232.513 172.257 231.435 170.257 230.394 168.254C229.672 166.864 228.594 164.033 226.952 163.466C225.009 162.795 223.558 166.003 222.749 167.223ZM137.634 137.241C133.776 141.727 130.426 146.62 127.272 151.617C125.733 154.056 124.238 156.523 122.745 158.991C121.769 160.606 121.036 162.671 119.846 164.134C117.132 167.47 116.377 160.191 115.978 158.609C114.502 152.775 112.675 146.987 111.05 141.19L112.716 141.19C119.356 141.186 125.722 141.088 132.187 139.131C134.017 138.578 135.686 137.376 137.634 137.241ZM151.659 138.372C149.559 139.923 136.113 149.031 141.769 152.545C142.939 153.273 144.852 152.943 146.174 153.047C147.869 153.181 149.591 153.345 151.265 153.645C153.433 154.034 155.539 154.713 157.717 155.056C159.448 155.33 161.742 155.649 163.289 154.571C165.841 152.792 164.292 149.298 163.45 147.037C162.252 143.824 161.118 139.522 158.147 137.609C157.455 137.163 156.608 135.573 155.864 135.428C154.7 135.199 152.511 137.743 151.659 138.372ZM77.4794 62.8218C78.4932 63.5975 78.5395 65.2084 78.8024 66.3453C79.6867 70.1697 80.9209 73.8925 81.6534 77.7577C82.3674 81.5276 82.5918 85.239 82.2415 89.0595C82.0077 91.6076 81.9806 94.7431 80.4317 96.9131C78.5779 99.5095 74.9073 99.3765 72.1312 100.145C69.4603 100.885 66.812 103.177 69.7255 105.559C70.7608 106.405 72.1202 106.543 73.1438 107.358C74.4063 108.365 75.1313 110.168 75.6676 111.642C76.1094 112.856 76.0965 113.088 74.7771 113.517C74.1745 113.713 73.5656 113.837 72.9315 113.784C71.4878 113.664 70.1998 112.711 68.9911 111.995C65.9081 110.167 62.3474 107.728 58.6666 107.453C57.49 107.365 56.1525 107.846 55.0085 107.464C53.9426 107.107 54.2697 106.889 54.0846 105.898C53.3513 101.968 53.0535 98.1112 51.0499 94.5564C50.0609 92.8023 47.4464 89.214 45.6939 91.945C44.9622 93.0855 44.6974 93.6426 43.0739 93.2927C41.753 93.0082 40.3018 91.9635 40.5638 90.4377C40.8106 88.9983 42.7036 88.0182 43.8507 87.3874C45.3788 86.5478 46.4503 86.6447 48.1141 86.4458C52.6859 85.8993 49.4806 79.2128 48.8215 76.7039C48.4072 75.1272 47.9227 73.089 49.0102 71.6653C50.6654 69.4996 54.2713 70.2117 56.5429 70.5189C59.6843 70.9438 63.1136 71.1702 66.0537 69.7444C69.1641 68.2363 70.4897 64.8349 73.4063 63.1812C74.484 62.57 76.3723 61.9736 77.4794 62.8218ZM63.8292 90.4443C61.6678 90.4153 62.7185 93.497 63.3101 94.5331C64.5569 96.7184 67.2275 97.5635 69.5724 96.7576C71.4273 96.1201 73.4337 93.304 70.5285 92.8371C69.1354 92.6135 67.7563 92.7045 66.4362 92.0419C65.6841 91.6644 64.7119 90.4561 63.8292 90.4443ZM69.2515 74.057C67.9085 74.8722 70.2005 80.0792 70.5865 81.133C71.2151 82.8529 71.7745 83.9632 70.1754 85.2889C69.0635 86.2109 66.8705 87.0065 67.9176 88.8438C68.8866 90.5437 72.2116 89.8309 73.5635 88.9991C75.5287 87.7896 74.9496 85.4729 74.5161 83.5717C74.2328 82.326 71.6427 72.6054 69.2515 74.057ZM280.715 39.8687C276.574 41.6377 272.339 43.2357 267.957 44.3016C264.127 45.2334 260.362 46.2382 256.415 46.0192C252.764 45.8172 252.328 49.4042 254.414 51.8885C255.547 53.2381 256.862 53.2043 258.513 53.2565C260.446 53.3177 262.201 53.854 264.066 54.3342C266.905 55.0655 269.78 55.6866 272.531 56.7188C273.951 57.2516 275.352 57.8781 276.618 58.72C277.414 59.2497 279.191 60.2038 278.251 60.9438C276.893 62.0128 272.861 60.5483 271.245 60.4518C267.481 60.2274 263.725 59.8876 259.983 59.4164C258.15 59.1853 256.182 58.957 254.446 58.2912C253.31 57.8558 252.053 56.7745 250.767 57.0491C248.053 57.6286 249.398 61.6962 250.63 63.0196C252.459 64.9847 255.236 65.8526 257.599 66.9691C259.251 67.7498 260.893 68.5765 262.496 69.4502C263.254 69.8629 266.785 71.4091 266.673 72.5829C266.556 73.8168 263.769 73.1946 263.079 73.0824C258.479 72.3342 254.328 70.5554 250.077 68.735C248.217 67.9382 246.33 67.1735 244.509 66.29C243.236 65.6725 241.986 64.7317 240.58 64.4512C237.266 63.7893 237.411 67.4909 236.106 69.4906C232.227 75.4336 224.733 77.9688 218.903 81.4032C216.697 82.7022 214.593 84.1982 212.569 85.7631C211.123 86.8805 210.545 88.4184 208.931 86.9448C207.586 85.7165 206.937 83.9149 206.074 82.3526C205.07 80.5338 203.729 78.928 202.7 77.1241C201.18 74.459 200.724 71.9171 204.064 70.9363C207.57 69.9069 210.344 68.3717 213.324 66.1813C220.636 60.8057 226.704 53.9411 233.996 48.5243C240.751 43.5056 247.914 38.7961 256.382 37.4485C264.408 36.1707 273.214 36.4853 280.715 39.8687ZM61.6345 78.4709C61.8059 79.9508 62.1704 83.107 64.2262 83.2251C66.723 83.3683 65.0461 75.7835 63.6318 74.9298C61.3673 73.5629 61.4893 77.217 61.6345 78.4709ZM84.8669 77.8668C87.9836 78.1249 88.8718 81.5386 85.7567 82.7473L84.8669 77.8668ZM73.3109 74.8708C73.711 76.4201 73.5686 78.9062 74.8119 80.0954C76.5645 81.771 77.3275 79.3119 77.3146 77.9097C77.302 76.5229 76.6147 73.0539 74.7585 72.8711C73.1728 72.7149 74.4926 74.5534 73.3109 74.8708ZM39.676 40.4015C40.8153 42.7723 39.5905 45.1122 38.9086 47.4426C40.3073 47.8934 42.192 47.5525 43.0461 49.0308C43.5843 49.9625 43.4906 51.3655 43.3293 52.3746C43.1971 53.2024 42.5184 54.317 43.0833 55.0851C43.8229 56.0907 45.6586 55.6258 46.4742 56.7443C47.714 58.4454 47.0184 62.331 45.2788 63.6116C42.8338 65.4104 44.2929 60.9959 44.4424 60.1921C44.8174 58.1782 42.731 58.4521 41.3061 57.6388C40.5414 57.2025 40.4049 57.1182 40.2296 56.1868C40.0675 55.3288 40.1534 54.6481 40.3578 53.7234C41.0515 50.5859 39.8388 51.0983 37.3463 50.407C35.1964 49.8103 35.3686 48.0923 35.9147 46.2864C36.3431 44.8709 37.6202 42.5487 36.2368 41.3419C35.688 40.8629 34.8543 41.1658 34.7358 40.1661C34.6558 39.4913 35.5612 38.385 36.0367 37.9969C37.6755 36.6591 39.0098 39.015 39.676 40.4015Z" fill="black"/>
</g>
</svg>
