<svg width="40" height="40" viewBox="0 0 40 40" fill="none" xmlns="http://www.w3.org/2000/svg">
<circle cx="20" cy="20" r="19.5" stroke="#079911"/>
<path d="M30 13.0078C29.26 13.5349 28.4407 13.938 27.5736 14.2016C27.1083 13.6613 26.4898 13.2783 25.8018 13.1045C25.1138 12.9307 24.3896 12.9744 23.7271 13.2298C23.0645 13.4851 22.4956 13.9397 22.0973 14.5322C21.699 15.1246 21.4905 15.8263 21.5 16.5422V17.3225C20.142 17.358 18.7964 17.0539 17.5831 16.4373C16.3697 15.8206 15.3262 14.9105 14.5455 13.7881C14.5455 13.7881 11.4545 20.81 18.4091 23.9309C16.8177 25.0216 14.9219 25.5685 13 25.4913C19.9545 29.3924 28.4545 25.4913 28.4545 16.5188C28.4538 16.3015 28.4331 16.0847 28.3927 15.8712C29.1814 15.086 29.7379 14.0945 30 13.0078V13.0078Z" stroke="#079911" stroke-linecap="round" stroke-linejoin="round"/>
</svg>
